<mxfile host="Electron" agent="Mozilla/5.0 (Windows NT 10.0; Win64; x64) AppleWebKit/537.36 (KHTML, like Gecko) draw.io/24.7.8 Chrome/128.0.6613.36 Electron/32.0.1 Safari/537.36" version="24.7.8">
  <diagram name="Page-1" id="MByKMeEt-2IV4hnGMTNG">
    <mxGraphModel dx="2713" dy="1829" grid="1" gridSize="10" guides="1" tooltips="1" connect="1" arrows="1" fold="1" page="1" pageScale="1" pageWidth="827" pageHeight="1169" math="0" shadow="0">
      <root>
        <mxCell id="0" />
        <mxCell id="1" parent="0" />
        <mxCell id="zpII4Fj_1cz_GaKxQMC_-45" value="in" style="text;html=1;align=center;verticalAlign=middle;resizable=0;points=[];autosize=1;strokeColor=none;fillColor=none;" vertex="1" parent="1">
          <mxGeometry x="185" y="1250" width="30" height="30" as="geometry" />
        </mxCell>
        <mxCell id="zpII4Fj_1cz_GaKxQMC_-1" value="" style="verticalLabelPosition=bottom;shadow=0;dashed=0;align=center;html=1;verticalAlign=top;shape=stencil(rVXBjoMgEP0aj7uxEG2vu269N9kfQEuVFIEgte3fL4hNiorauokeeAPz3gwzQwCTukQCByBEtcC5CuBPAECDJEEZ1TDQltKCu9AuGaqwRfQf/t7b0ykl4iOlXNg9tZL8jK/kqLrDhJVYEmWtV4ttwtYj3Afhl0bNB5OcM6Z1EM5qx/Jk184RYaovxXgWmqTCCkuLdopvzurerT5BZIEApK9Q7d+g2r5HdVhAtVkYFUw04ssuTDKUnwvJL+w4KlCa2hiUQneRsauoH/2EHg8rTE5c4gk5J0KprbGJpApkqm9geJgr3mDfjflEux4oYdgb9jIXUyLi9SKWuXBF7NanouvsVbnoRRJNdtC4DPj/+ZzpY417qk4P2rl6VfhmegxRUjBLl2Nmuv4xUp1R1zzty7hSvHKbMHJvYEb4Qu7DIu7tC9wjiQVxod+h796oGEyEFrWvVwv8AQ==);strokeColor=default;strokeWidth=1;fontFamily=Helvetica;fontSize=12;fontColor=default;fillColor=default;noLabel=0;movableLabel=0;" vertex="1" parent="1">
          <mxGeometry x="324" y="267.5" width="100" height="80" as="geometry" />
        </mxCell>
        <mxCell id="zpII4Fj_1cz_GaKxQMC_-2" value="8bit&lt;div&gt;2x1&lt;br&gt;Mux&lt;/div&gt;" style="shadow=0;dashed=0;align=center;html=1;strokeWidth=1;shape=mxgraph.electrical.abstract.mux2;whiteSpace=wrap;strokeColor=default;verticalAlign=middle;fontFamily=Helvetica;fontSize=12;fontColor=default;fillColor=default;" vertex="1" parent="1">
          <mxGeometry x="230" y="240" width="70" height="105" as="geometry" />
        </mxCell>
        <mxCell id="zpII4Fj_1cz_GaKxQMC_-3" style="edgeStyle=orthogonalEdgeStyle;rounded=0;orthogonalLoop=1;jettySize=auto;html=1;exitX=0;exitY=0.25;exitDx=0;exitDy=0;exitPerimeter=0;entryX=1;entryY=0.5;entryDx=0;entryDy=-5;entryPerimeter=0;fontFamily=Helvetica;fontSize=12;fontColor=default;endArrow=none;endFill=0;startArrow=none;startFill=0;" edge="1" parent="1" source="zpII4Fj_1cz_GaKxQMC_-1" target="zpII4Fj_1cz_GaKxQMC_-2">
          <mxGeometry relative="1" as="geometry" />
        </mxCell>
        <mxCell id="zpII4Fj_1cz_GaKxQMC_-4" value="&lt;font color=&quot;#3333ff&quot;&gt;clk&lt;/font&gt;" style="text;html=1;align=center;verticalAlign=middle;resizable=0;points=[];autosize=1;strokeColor=none;fillColor=none;fontFamily=Helvetica;fontSize=12;fontColor=default;" vertex="1" parent="1">
          <mxGeometry x="294" y="313" width="40" height="30" as="geometry" />
        </mxCell>
        <mxCell id="zpII4Fj_1cz_GaKxQMC_-5" value="state" style="text;html=1;align=center;verticalAlign=middle;resizable=0;points=[];autosize=1;strokeColor=none;fillColor=none;fontFamily=Helvetica;fontSize=12;fontColor=default;" vertex="1" parent="1">
          <mxGeometry x="415" y="271.5" width="50" height="30" as="geometry" />
        </mxCell>
        <mxCell id="zpII4Fj_1cz_GaKxQMC_-6" value="rst_n" style="text;html=1;align=center;verticalAlign=middle;resizable=0;points=[];autosize=1;strokeColor=none;fillColor=none;fontFamily=Helvetica;fontSize=12;fontColor=default;" vertex="1" parent="1">
          <mxGeometry x="240" y="336.5" width="50" height="30" as="geometry" />
        </mxCell>
        <mxCell id="zpII4Fj_1cz_GaKxQMC_-7" value="S0&lt;sub&gt;&lt;font style=&quot;font-size: 6px;&quot;&gt;P&lt;/font&gt;&lt;/sub&gt;" style="text;html=1;align=center;verticalAlign=middle;resizable=0;points=[];autosize=1;strokeColor=none;fillColor=none;fontFamily=Helvetica;fontSize=12;fontColor=default;" vertex="1" parent="1">
          <mxGeometry x="197" y="250.5" width="40" height="30" as="geometry" />
        </mxCell>
        <mxCell id="zpII4Fj_1cz_GaKxQMC_-8" value="next_state" style="text;html=1;align=center;verticalAlign=middle;resizable=0;points=[];autosize=1;strokeColor=none;fillColor=none;fontFamily=Helvetica;fontSize=12;fontColor=default;" vertex="1" parent="1">
          <mxGeometry x="160" y="293.5" width="80" height="30" as="geometry" />
        </mxCell>
        <mxCell id="zpII4Fj_1cz_GaKxQMC_-9" value="" style="group" vertex="1" connectable="0" parent="1">
          <mxGeometry x="218" y="244.5" width="30" height="30" as="geometry" />
        </mxCell>
        <mxCell id="zpII4Fj_1cz_GaKxQMC_-10" value="" style="endArrow=none;html=1;rounded=0;fontFamily=Helvetica;fontSize=12;fontColor=default;" edge="1" parent="zpII4Fj_1cz_GaKxQMC_-9">
          <mxGeometry width="50" height="50" relative="1" as="geometry">
            <mxPoint x="12" y="25.5" as="sourcePoint" />
            <mxPoint x="22" y="15.5" as="targetPoint" />
          </mxGeometry>
        </mxCell>
        <mxCell id="zpII4Fj_1cz_GaKxQMC_-11" value="&lt;font style=&quot;font-size: 7px;&quot;&gt;4&lt;/font&gt;" style="text;html=1;align=center;verticalAlign=middle;resizable=1;points=[];autosize=1;strokeColor=none;fillColor=none;fontFamily=Helvetica;fontSize=12;fontColor=default;movable=1;rotatable=1;deletable=1;editable=1;locked=0;connectable=1;" vertex="1" parent="zpII4Fj_1cz_GaKxQMC_-9">
          <mxGeometry width="30" height="30" as="geometry" />
        </mxCell>
        <mxCell id="zpII4Fj_1cz_GaKxQMC_-12" value="" style="group" vertex="1" connectable="0" parent="1">
          <mxGeometry x="218" y="289.5" width="30" height="30" as="geometry" />
        </mxCell>
        <mxCell id="zpII4Fj_1cz_GaKxQMC_-13" value="" style="endArrow=none;html=1;rounded=0;fontFamily=Helvetica;fontSize=12;fontColor=default;" edge="1" parent="zpII4Fj_1cz_GaKxQMC_-12">
          <mxGeometry width="50" height="50" relative="1" as="geometry">
            <mxPoint x="12" y="25.5" as="sourcePoint" />
            <mxPoint x="22" y="15.5" as="targetPoint" />
          </mxGeometry>
        </mxCell>
        <mxCell id="zpII4Fj_1cz_GaKxQMC_-14" value="&lt;font style=&quot;font-size: 7px;&quot;&gt;4&lt;/font&gt;" style="text;html=1;align=center;verticalAlign=middle;resizable=1;points=[];autosize=1;strokeColor=none;fillColor=none;fontFamily=Helvetica;fontSize=12;fontColor=default;movable=1;rotatable=1;deletable=1;editable=1;locked=0;connectable=1;" vertex="1" parent="zpII4Fj_1cz_GaKxQMC_-12">
          <mxGeometry width="30" height="30" as="geometry" />
        </mxCell>
        <mxCell id="zpII4Fj_1cz_GaKxQMC_-15" value="" style="group" vertex="1" connectable="0" parent="1">
          <mxGeometry x="299" y="266.5" width="30" height="30" as="geometry" />
        </mxCell>
        <mxCell id="zpII4Fj_1cz_GaKxQMC_-16" value="" style="endArrow=none;html=1;rounded=0;fontFamily=Helvetica;fontSize=12;fontColor=default;" edge="1" parent="zpII4Fj_1cz_GaKxQMC_-15">
          <mxGeometry width="50" height="50" relative="1" as="geometry">
            <mxPoint x="12" y="25.5" as="sourcePoint" />
            <mxPoint x="22" y="15.5" as="targetPoint" />
          </mxGeometry>
        </mxCell>
        <mxCell id="zpII4Fj_1cz_GaKxQMC_-17" value="&lt;span style=&quot;font-size: 7px;&quot;&gt;4&lt;/span&gt;" style="text;html=1;align=center;verticalAlign=middle;resizable=1;points=[];autosize=1;strokeColor=none;fillColor=none;fontFamily=Helvetica;fontSize=12;fontColor=default;movable=1;rotatable=1;deletable=1;editable=1;locked=0;connectable=1;" vertex="1" parent="zpII4Fj_1cz_GaKxQMC_-15">
          <mxGeometry width="30" height="30" as="geometry" />
        </mxCell>
        <mxCell id="zpII4Fj_1cz_GaKxQMC_-18" value="" style="group" vertex="1" connectable="0" parent="1">
          <mxGeometry x="399" y="266.5" width="30" height="30" as="geometry" />
        </mxCell>
        <mxCell id="zpII4Fj_1cz_GaKxQMC_-19" value="" style="endArrow=none;html=1;rounded=0;fontFamily=Helvetica;fontSize=12;fontColor=default;" edge="1" parent="zpII4Fj_1cz_GaKxQMC_-18">
          <mxGeometry width="50" height="50" relative="1" as="geometry">
            <mxPoint x="12" y="25.5" as="sourcePoint" />
            <mxPoint x="22" y="15.5" as="targetPoint" />
          </mxGeometry>
        </mxCell>
        <mxCell id="zpII4Fj_1cz_GaKxQMC_-20" value="&lt;font style=&quot;font-size: 7px;&quot;&gt;4&lt;/font&gt;" style="text;html=1;align=center;verticalAlign=middle;resizable=1;points=[];autosize=1;strokeColor=none;fillColor=none;fontFamily=Helvetica;fontSize=12;fontColor=default;movable=1;rotatable=1;deletable=1;editable=1;locked=0;connectable=1;" vertex="1" parent="zpII4Fj_1cz_GaKxQMC_-18">
          <mxGeometry width="30" height="30" as="geometry" />
        </mxCell>
        <mxCell id="zpII4Fj_1cz_GaKxQMC_-37" style="edgeStyle=orthogonalEdgeStyle;rounded=0;orthogonalLoop=1;jettySize=auto;html=1;exitX=0.35714285714285715;exitY=1;exitDx=10;exitDy=0;exitPerimeter=0;endArrow=none;endFill=0;" edge="1" parent="1" source="zpII4Fj_1cz_GaKxQMC_-21">
          <mxGeometry relative="1" as="geometry">
            <mxPoint x="200" y="1260" as="targetPoint" />
            <Array as="points">
              <mxPoint x="200" y="520" />
            </Array>
          </mxGeometry>
        </mxCell>
        <mxCell id="zpII4Fj_1cz_GaKxQMC_-21" value="8bit&lt;div&gt;2x1&lt;br&gt;Mux&lt;/div&gt;" style="shadow=0;dashed=0;align=center;html=1;strokeWidth=1;shape=mxgraph.electrical.abstract.mux2;whiteSpace=wrap;strokeColor=default;verticalAlign=middle;fontFamily=Helvetica;fontSize=12;fontColor=default;fillColor=default;" vertex="1" parent="1">
          <mxGeometry x="230" y="440" width="70" height="80" as="geometry" />
        </mxCell>
        <mxCell id="zpII4Fj_1cz_GaKxQMC_-38" style="rounded=0;orthogonalLoop=1;jettySize=auto;html=1;exitX=0.35714285714285715;exitY=1;exitDx=10;exitDy=0;exitPerimeter=0;endArrow=none;endFill=0;startArrow=none;startFill=0;" edge="1" parent="1" source="zpII4Fj_1cz_GaKxQMC_-29">
          <mxGeometry relative="1" as="geometry">
            <mxPoint x="200" y="610" as="targetPoint" />
          </mxGeometry>
        </mxCell>
        <mxCell id="zpII4Fj_1cz_GaKxQMC_-29" value="8bit&lt;div&gt;2x1&lt;br&gt;Mux&lt;/div&gt;" style="shadow=0;dashed=0;align=center;html=1;strokeWidth=1;shape=mxgraph.electrical.abstract.mux2;whiteSpace=wrap;strokeColor=default;verticalAlign=middle;fontFamily=Helvetica;fontSize=12;fontColor=default;fillColor=default;" vertex="1" parent="1">
          <mxGeometry x="230" y="530" width="70" height="80" as="geometry" />
        </mxCell>
        <mxCell id="zpII4Fj_1cz_GaKxQMC_-39" style="rounded=0;orthogonalLoop=1;jettySize=auto;html=1;exitX=0.35714285714285715;exitY=1;exitDx=10;exitDy=0;exitPerimeter=0;endArrow=none;endFill=0;" edge="1" parent="1" source="zpII4Fj_1cz_GaKxQMC_-30">
          <mxGeometry relative="1" as="geometry">
            <mxPoint x="200" y="700" as="targetPoint" />
          </mxGeometry>
        </mxCell>
        <mxCell id="zpII4Fj_1cz_GaKxQMC_-30" value="8bit&lt;div&gt;2x1&lt;br&gt;Mux&lt;/div&gt;" style="shadow=0;dashed=0;align=center;html=1;strokeWidth=1;shape=mxgraph.electrical.abstract.mux2;whiteSpace=wrap;strokeColor=default;verticalAlign=middle;fontFamily=Helvetica;fontSize=12;fontColor=default;fillColor=default;" vertex="1" parent="1">
          <mxGeometry x="230" y="620" width="70" height="80" as="geometry" />
        </mxCell>
        <mxCell id="zpII4Fj_1cz_GaKxQMC_-40" style="rounded=0;orthogonalLoop=1;jettySize=auto;html=1;exitX=0.35714285714285715;exitY=1;exitDx=10;exitDy=0;exitPerimeter=0;endArrow=none;endFill=0;" edge="1" parent="1" source="zpII4Fj_1cz_GaKxQMC_-31">
          <mxGeometry relative="1" as="geometry">
            <mxPoint x="200" y="790" as="targetPoint" />
          </mxGeometry>
        </mxCell>
        <mxCell id="zpII4Fj_1cz_GaKxQMC_-31" value="8bit&lt;div&gt;2x1&lt;br&gt;Mux&lt;/div&gt;" style="shadow=0;dashed=0;align=center;html=1;strokeWidth=1;shape=mxgraph.electrical.abstract.mux2;whiteSpace=wrap;strokeColor=default;verticalAlign=middle;fontFamily=Helvetica;fontSize=12;fontColor=default;fillColor=default;" vertex="1" parent="1">
          <mxGeometry x="230" y="710" width="70" height="80" as="geometry" />
        </mxCell>
        <mxCell id="zpII4Fj_1cz_GaKxQMC_-41" style="rounded=0;orthogonalLoop=1;jettySize=auto;html=1;exitX=0.35714285714285715;exitY=1;exitDx=10;exitDy=0;exitPerimeter=0;endArrow=none;endFill=0;" edge="1" parent="1" source="zpII4Fj_1cz_GaKxQMC_-32">
          <mxGeometry relative="1" as="geometry">
            <mxPoint x="200" y="880" as="targetPoint" />
          </mxGeometry>
        </mxCell>
        <mxCell id="zpII4Fj_1cz_GaKxQMC_-32" value="8bit&lt;div&gt;2x1&lt;br&gt;Mux&lt;/div&gt;" style="shadow=0;dashed=0;align=center;html=1;strokeWidth=1;shape=mxgraph.electrical.abstract.mux2;whiteSpace=wrap;strokeColor=default;verticalAlign=middle;fontFamily=Helvetica;fontSize=12;fontColor=default;fillColor=default;" vertex="1" parent="1">
          <mxGeometry x="230" y="800" width="70" height="80" as="geometry" />
        </mxCell>
        <mxCell id="zpII4Fj_1cz_GaKxQMC_-42" style="rounded=0;orthogonalLoop=1;jettySize=auto;html=1;exitX=0.35714285714285715;exitY=1;exitDx=10;exitDy=0;exitPerimeter=0;endArrow=none;endFill=0;" edge="1" parent="1" source="zpII4Fj_1cz_GaKxQMC_-33">
          <mxGeometry relative="1" as="geometry">
            <mxPoint x="200" y="970" as="targetPoint" />
          </mxGeometry>
        </mxCell>
        <mxCell id="zpII4Fj_1cz_GaKxQMC_-33" value="8bit&lt;div&gt;2x1&lt;br&gt;Mux&lt;/div&gt;" style="shadow=0;dashed=0;align=center;html=1;strokeWidth=1;shape=mxgraph.electrical.abstract.mux2;whiteSpace=wrap;strokeColor=default;verticalAlign=middle;fontFamily=Helvetica;fontSize=12;fontColor=default;fillColor=default;" vertex="1" parent="1">
          <mxGeometry x="230" y="890" width="70" height="80" as="geometry" />
        </mxCell>
        <mxCell id="zpII4Fj_1cz_GaKxQMC_-43" style="rounded=0;orthogonalLoop=1;jettySize=auto;html=1;exitX=0.35714285714285715;exitY=1;exitDx=10;exitDy=0;exitPerimeter=0;endArrow=none;endFill=0;" edge="1" parent="1" source="zpII4Fj_1cz_GaKxQMC_-34">
          <mxGeometry relative="1" as="geometry">
            <mxPoint x="200" y="1060" as="targetPoint" />
          </mxGeometry>
        </mxCell>
        <mxCell id="zpII4Fj_1cz_GaKxQMC_-34" value="8bit&lt;div&gt;2x1&lt;br&gt;Mux&lt;/div&gt;" style="shadow=0;dashed=0;align=center;html=1;strokeWidth=1;shape=mxgraph.electrical.abstract.mux2;whiteSpace=wrap;strokeColor=default;verticalAlign=middle;fontFamily=Helvetica;fontSize=12;fontColor=default;fillColor=default;" vertex="1" parent="1">
          <mxGeometry x="230" y="980" width="70" height="80" as="geometry" />
        </mxCell>
        <mxCell id="zpII4Fj_1cz_GaKxQMC_-44" style="rounded=0;orthogonalLoop=1;jettySize=auto;html=1;exitX=0.35714285714285715;exitY=1;exitDx=10;exitDy=0;exitPerimeter=0;endArrow=none;endFill=0;" edge="1" parent="1" source="zpII4Fj_1cz_GaKxQMC_-35">
          <mxGeometry relative="1" as="geometry">
            <mxPoint x="200" y="1150" as="targetPoint" />
          </mxGeometry>
        </mxCell>
        <mxCell id="zpII4Fj_1cz_GaKxQMC_-35" value="8bit&lt;div&gt;2x1&lt;br&gt;Mux&lt;/div&gt;" style="shadow=0;dashed=0;align=center;html=1;strokeWidth=1;shape=mxgraph.electrical.abstract.mux2;whiteSpace=wrap;strokeColor=default;verticalAlign=middle;fontFamily=Helvetica;fontSize=12;fontColor=default;fillColor=default;" vertex="1" parent="1">
          <mxGeometry x="230" y="1070" width="70" height="80" as="geometry" />
        </mxCell>
        <mxCell id="zpII4Fj_1cz_GaKxQMC_-83" style="edgeStyle=orthogonalEdgeStyle;rounded=0;orthogonalLoop=1;jettySize=auto;html=1;exitX=0;exitY=0.5807895634379263;exitDx=0;exitDy=3;exitPerimeter=0;endArrow=none;endFill=0;" edge="1" parent="1" source="zpII4Fj_1cz_GaKxQMC_-36">
          <mxGeometry relative="1" as="geometry">
            <mxPoint x="390" y="903.0344827586207" as="targetPoint" />
          </mxGeometry>
        </mxCell>
        <mxCell id="zpII4Fj_1cz_GaKxQMC_-84" style="edgeStyle=orthogonalEdgeStyle;rounded=0;orthogonalLoop=1;jettySize=auto;html=1;exitX=0;exitY=0.641925306957708;exitDx=0;exitDy=3;exitPerimeter=0;endArrow=none;endFill=0;" edge="1" parent="1" source="zpII4Fj_1cz_GaKxQMC_-36">
          <mxGeometry relative="1" as="geometry">
            <mxPoint x="390" y="947.8620689655172" as="targetPoint" />
          </mxGeometry>
        </mxCell>
        <mxCell id="zpII4Fj_1cz_GaKxQMC_-86" style="edgeStyle=orthogonalEdgeStyle;rounded=0;orthogonalLoop=1;jettySize=auto;html=1;exitX=0;exitY=0.7030610504774897;exitDx=0;exitDy=3;exitPerimeter=0;endArrow=none;endFill=0;" edge="1" parent="1" source="zpII4Fj_1cz_GaKxQMC_-36">
          <mxGeometry relative="1" as="geometry">
            <mxPoint x="390" y="992" as="targetPoint" />
          </mxGeometry>
        </mxCell>
        <mxCell id="zpII4Fj_1cz_GaKxQMC_-87" style="edgeStyle=orthogonalEdgeStyle;rounded=0;orthogonalLoop=1;jettySize=auto;html=1;exitX=0;exitY=0.7641967939972714;exitDx=0;exitDy=3;exitPerimeter=0;endArrow=none;endFill=0;" edge="1" parent="1" source="zpII4Fj_1cz_GaKxQMC_-36">
          <mxGeometry relative="1" as="geometry">
            <mxPoint x="390" y="1036.8275862068965" as="targetPoint" />
          </mxGeometry>
        </mxCell>
        <mxCell id="zpII4Fj_1cz_GaKxQMC_-88" style="edgeStyle=orthogonalEdgeStyle;rounded=0;orthogonalLoop=1;jettySize=auto;html=1;exitX=0;exitY=0.825332537517053;exitDx=0;exitDy=3;exitPerimeter=0;endArrow=none;endFill=0;" edge="1" parent="1" source="zpII4Fj_1cz_GaKxQMC_-36">
          <mxGeometry relative="1" as="geometry">
            <mxPoint x="390" y="1081.6551724137933" as="targetPoint" />
          </mxGeometry>
        </mxCell>
        <mxCell id="zpII4Fj_1cz_GaKxQMC_-89" style="edgeStyle=orthogonalEdgeStyle;rounded=0;orthogonalLoop=1;jettySize=auto;html=1;exitX=0;exitY=0.8864682810368347;exitDx=0;exitDy=3;exitPerimeter=0;endArrow=none;endFill=0;" edge="1" parent="1" source="zpII4Fj_1cz_GaKxQMC_-36">
          <mxGeometry relative="1" as="geometry">
            <mxPoint x="390" y="1126.4827586206898" as="targetPoint" />
          </mxGeometry>
        </mxCell>
        <mxCell id="zpII4Fj_1cz_GaKxQMC_-90" style="edgeStyle=orthogonalEdgeStyle;rounded=0;orthogonalLoop=1;jettySize=auto;html=1;exitX=0;exitY=0.9476040245566164;exitDx=0;exitDy=3;exitPerimeter=0;endArrow=none;endFill=0;" edge="1" parent="1" source="zpII4Fj_1cz_GaKxQMC_-36">
          <mxGeometry relative="1" as="geometry">
            <mxPoint x="390" y="1171.3103448275863" as="targetPoint" />
          </mxGeometry>
        </mxCell>
        <mxCell id="zpII4Fj_1cz_GaKxQMC_-36" value="&lt;div&gt;8bit&lt;/div&gt;8x1&lt;br&gt;Mux" style="shadow=0;dashed=0;align=center;html=1;strokeWidth=1;shape=mxgraph.electrical.abstract.mux2;whiteSpace=wrap;selectorPins=4;overflow=visible;fillOpacity=100;labelPadding=0;noLabel=0;snapToPoint=0;metaEdit=0;backgroundOutline=0;movableLabel=1;comic=0;enumerate=0;" vertex="1" parent="1">
          <mxGeometry x="490" y="474" width="90" height="733" as="geometry" />
        </mxCell>
        <mxCell id="zpII4Fj_1cz_GaKxQMC_-46" value="S0&lt;font style=&quot;font-size: 6px;&quot;&gt;&lt;sub&gt;P&lt;/sub&gt;&lt;/font&gt;" style="text;html=1;align=center;verticalAlign=middle;resizable=0;points=[];autosize=1;strokeColor=none;fillColor=none;" vertex="1" parent="1">
          <mxGeometry x="199" y="444" width="40" height="30" as="geometry" />
        </mxCell>
        <mxCell id="zpII4Fj_1cz_GaKxQMC_-47" value="S1&lt;font style=&quot;font-size: 6px;&quot;&gt;&lt;sub&gt;P&lt;/sub&gt;&lt;/font&gt;" style="text;html=1;align=center;verticalAlign=middle;resizable=0;points=[];autosize=1;strokeColor=none;fillColor=none;" vertex="1" parent="1">
          <mxGeometry x="199" y="476" width="40" height="30" as="geometry" />
        </mxCell>
        <mxCell id="zpII4Fj_1cz_GaKxQMC_-48" value="S1&lt;font style=&quot;font-size: 6px;&quot;&gt;&lt;sub&gt;P&lt;/sub&gt;&lt;/font&gt;" style="text;html=1;align=center;verticalAlign=middle;resizable=0;points=[];autosize=1;strokeColor=none;fillColor=none;" vertex="1" parent="1">
          <mxGeometry x="199" y="534" width="40" height="30" as="geometry" />
        </mxCell>
        <mxCell id="zpII4Fj_1cz_GaKxQMC_-49" value="S2&lt;font style=&quot;font-size: 6px;&quot;&gt;&lt;sub&gt;P&lt;/sub&gt;&lt;/font&gt;" style="text;html=1;align=center;verticalAlign=middle;resizable=0;points=[];autosize=1;strokeColor=none;fillColor=none;" vertex="1" parent="1">
          <mxGeometry x="199" y="566" width="40" height="30" as="geometry" />
        </mxCell>
        <mxCell id="zpII4Fj_1cz_GaKxQMC_-50" value="S0&lt;font style=&quot;font-size: 6px;&quot;&gt;&lt;sub&gt;P&lt;/sub&gt;&lt;/font&gt;" style="text;html=1;align=center;verticalAlign=middle;resizable=0;points=[];autosize=1;strokeColor=none;fillColor=none;" vertex="1" parent="1">
          <mxGeometry x="199" y="624" width="40" height="30" as="geometry" />
        </mxCell>
        <mxCell id="zpII4Fj_1cz_GaKxQMC_-51" value="S3&lt;font style=&quot;font-size: 6px;&quot;&gt;&lt;sub&gt;P&lt;/sub&gt;&lt;/font&gt;" style="text;html=1;align=center;verticalAlign=middle;resizable=0;points=[];autosize=1;strokeColor=none;fillColor=none;" vertex="1" parent="1">
          <mxGeometry x="199" y="656" width="40" height="30" as="geometry" />
        </mxCell>
        <mxCell id="zpII4Fj_1cz_GaKxQMC_-52" value="S4&lt;font style=&quot;font-size: 6px;&quot;&gt;&lt;sub&gt;P&lt;/sub&gt;&lt;/font&gt;" style="text;html=1;align=center;verticalAlign=middle;resizable=0;points=[];autosize=1;strokeColor=none;fillColor=none;" vertex="1" parent="1">
          <mxGeometry x="199" y="714" width="40" height="30" as="geometry" />
        </mxCell>
        <mxCell id="zpII4Fj_1cz_GaKxQMC_-53" value="S3&lt;font style=&quot;font-size: 6px;&quot;&gt;&lt;sub&gt;P&lt;/sub&gt;&lt;/font&gt;" style="text;html=1;align=center;verticalAlign=middle;resizable=0;points=[];autosize=1;strokeColor=none;fillColor=none;" vertex="1" parent="1">
          <mxGeometry x="199" y="746" width="40" height="30" as="geometry" />
        </mxCell>
        <mxCell id="zpII4Fj_1cz_GaKxQMC_-54" value="S5&lt;font style=&quot;font-size: 6px;&quot;&gt;&lt;sub&gt;P&lt;/sub&gt;&lt;/font&gt;" style="text;html=1;align=center;verticalAlign=middle;resizable=0;points=[];autosize=1;strokeColor=none;fillColor=none;" vertex="1" parent="1">
          <mxGeometry x="199" y="805" width="40" height="30" as="geometry" />
        </mxCell>
        <mxCell id="zpII4Fj_1cz_GaKxQMC_-55" value="S1&lt;font style=&quot;font-size: 6px;&quot;&gt;&lt;sub&gt;P&lt;/sub&gt;&lt;/font&gt;" style="text;html=1;align=center;verticalAlign=middle;resizable=0;points=[];autosize=1;strokeColor=none;fillColor=none;" vertex="1" parent="1">
          <mxGeometry x="199" y="837" width="40" height="30" as="geometry" />
        </mxCell>
        <mxCell id="zpII4Fj_1cz_GaKxQMC_-56" value="S0&lt;font style=&quot;font-size: 6px;&quot;&gt;&lt;sub&gt;P&lt;/sub&gt;&lt;/font&gt;" style="text;html=1;align=center;verticalAlign=middle;resizable=0;points=[];autosize=1;strokeColor=none;fillColor=none;" vertex="1" parent="1">
          <mxGeometry x="199" y="895" width="40" height="30" as="geometry" />
        </mxCell>
        <mxCell id="zpII4Fj_1cz_GaKxQMC_-57" value="S6&lt;font style=&quot;font-size: 6px;&quot;&gt;&lt;sub&gt;P&lt;/sub&gt;&lt;/font&gt;" style="text;html=1;align=center;verticalAlign=middle;resizable=0;points=[];autosize=1;strokeColor=none;fillColor=none;" vertex="1" parent="1">
          <mxGeometry x="199" y="927" width="40" height="30" as="geometry" />
        </mxCell>
        <mxCell id="zpII4Fj_1cz_GaKxQMC_-58" value="S7&lt;font style=&quot;font-size: 6px;&quot;&gt;&lt;sub&gt;P&lt;/sub&gt;&lt;/font&gt;" style="text;html=1;align=center;verticalAlign=middle;resizable=0;points=[];autosize=1;strokeColor=none;fillColor=none;" vertex="1" parent="1">
          <mxGeometry x="199" y="985" width="40" height="30" as="geometry" />
        </mxCell>
        <mxCell id="zpII4Fj_1cz_GaKxQMC_-59" value="S8&lt;font style=&quot;font-size: 6px;&quot;&gt;&lt;sub&gt;P&lt;/sub&gt;&lt;/font&gt;" style="text;html=1;align=center;verticalAlign=middle;resizable=0;points=[];autosize=1;strokeColor=none;fillColor=none;" vertex="1" parent="1">
          <mxGeometry x="199" y="1017" width="40" height="30" as="geometry" />
        </mxCell>
        <mxCell id="zpII4Fj_1cz_GaKxQMC_-60" value="S0&lt;font style=&quot;font-size: 6px;&quot;&gt;&lt;sub&gt;P&lt;/sub&gt;&lt;/font&gt;" style="text;html=1;align=center;verticalAlign=middle;resizable=0;points=[];autosize=1;strokeColor=none;fillColor=none;" vertex="1" parent="1">
          <mxGeometry x="199" y="1075" width="40" height="30" as="geometry" />
        </mxCell>
        <mxCell id="zpII4Fj_1cz_GaKxQMC_-61" value="S6&lt;font style=&quot;font-size: 6px;&quot;&gt;&lt;sub&gt;P&lt;/sub&gt;&lt;/font&gt;" style="text;html=1;align=center;verticalAlign=middle;resizable=0;points=[];autosize=1;strokeColor=none;fillColor=none;" vertex="1" parent="1">
          <mxGeometry x="199" y="1107" width="40" height="30" as="geometry" />
        </mxCell>
        <mxCell id="zpII4Fj_1cz_GaKxQMC_-63" style="rounded=0;orthogonalLoop=1;jettySize=auto;html=1;exitX=0.35714285714285715;exitY=1;exitDx=10;exitDy=0;exitPerimeter=0;endArrow=none;endFill=0;" edge="1" parent="1" source="zpII4Fj_1cz_GaKxQMC_-62">
          <mxGeometry relative="1" as="geometry">
            <mxPoint x="200" y="1240.076923076923" as="targetPoint" />
          </mxGeometry>
        </mxCell>
        <mxCell id="zpII4Fj_1cz_GaKxQMC_-62" value="8bit&lt;div&gt;2x1&lt;br&gt;Mux&lt;/div&gt;" style="shadow=0;dashed=0;align=center;html=1;strokeWidth=1;shape=mxgraph.electrical.abstract.mux2;whiteSpace=wrap;strokeColor=default;verticalAlign=middle;fontFamily=Helvetica;fontSize=12;fontColor=default;fillColor=default;" vertex="1" parent="1">
          <mxGeometry x="230" y="1160" width="70" height="80" as="geometry" />
        </mxCell>
        <mxCell id="zpII4Fj_1cz_GaKxQMC_-64" value="S0&lt;font style=&quot;font-size: 6px;&quot;&gt;&lt;sub&gt;P&lt;/sub&gt;&lt;/font&gt;" style="text;html=1;align=center;verticalAlign=middle;resizable=0;points=[];autosize=1;strokeColor=none;fillColor=none;" vertex="1" parent="1">
          <mxGeometry x="199" y="1164" width="40" height="30" as="geometry" />
        </mxCell>
        <mxCell id="zpII4Fj_1cz_GaKxQMC_-65" value="S3&lt;font style=&quot;font-size: 6px;&quot;&gt;&lt;sub&gt;P&lt;/sub&gt;&lt;/font&gt;" style="text;html=1;align=center;verticalAlign=middle;resizable=0;points=[];autosize=1;strokeColor=none;fillColor=none;" vertex="1" parent="1">
          <mxGeometry x="199" y="1196" width="40" height="30" as="geometry" />
        </mxCell>
        <mxCell id="zpII4Fj_1cz_GaKxQMC_-74" style="edgeStyle=orthogonalEdgeStyle;rounded=0;orthogonalLoop=1;jettySize=auto;html=1;exitX=1;exitY=0.5;exitDx=0;exitDy=-5;exitPerimeter=0;entryX=0;entryY=0.03056787175989086;entryDx=0;entryDy=3;entryPerimeter=0;endArrow=none;endFill=0;" edge="1" parent="1" source="zpII4Fj_1cz_GaKxQMC_-21" target="zpII4Fj_1cz_GaKxQMC_-36">
          <mxGeometry relative="1" as="geometry">
            <Array as="points">
              <mxPoint x="310" y="475" />
              <mxPoint x="310" y="499" />
            </Array>
          </mxGeometry>
        </mxCell>
        <mxCell id="zpII4Fj_1cz_GaKxQMC_-75" style="edgeStyle=orthogonalEdgeStyle;rounded=0;orthogonalLoop=1;jettySize=auto;html=1;exitX=1;exitY=0.5;exitDx=0;exitDy=-5;exitPerimeter=0;entryX=0;entryY=0.09170361527967258;entryDx=0;entryDy=3;entryPerimeter=0;endArrow=none;endFill=0;" edge="1" parent="1" source="zpII4Fj_1cz_GaKxQMC_-29" target="zpII4Fj_1cz_GaKxQMC_-36">
          <mxGeometry relative="1" as="geometry">
            <Array as="points">
              <mxPoint x="320" y="565" />
              <mxPoint x="320" y="544" />
            </Array>
          </mxGeometry>
        </mxCell>
        <mxCell id="zpII4Fj_1cz_GaKxQMC_-76" style="edgeStyle=orthogonalEdgeStyle;rounded=0;orthogonalLoop=1;jettySize=auto;html=1;exitX=1;exitY=0.5;exitDx=0;exitDy=-5;exitPerimeter=0;entryX=0;entryY=0.1528393587994543;entryDx=0;entryDy=3;entryPerimeter=0;endArrow=none;endFill=0;" edge="1" parent="1" source="zpII4Fj_1cz_GaKxQMC_-30" target="zpII4Fj_1cz_GaKxQMC_-36">
          <mxGeometry relative="1" as="geometry">
            <Array as="points">
              <mxPoint x="330" y="655" />
              <mxPoint x="330" y="589" />
            </Array>
          </mxGeometry>
        </mxCell>
        <mxCell id="zpII4Fj_1cz_GaKxQMC_-77" style="edgeStyle=orthogonalEdgeStyle;rounded=0;orthogonalLoop=1;jettySize=auto;html=1;exitX=1;exitY=0.5;exitDx=0;exitDy=-5;exitPerimeter=0;entryX=0;entryY=0.213975102319236;entryDx=0;entryDy=3;entryPerimeter=0;endArrow=none;endFill=0;" edge="1" parent="1" source="zpII4Fj_1cz_GaKxQMC_-31" target="zpII4Fj_1cz_GaKxQMC_-36">
          <mxGeometry relative="1" as="geometry">
            <Array as="points">
              <mxPoint x="340" y="745" />
              <mxPoint x="340" y="634" />
            </Array>
          </mxGeometry>
        </mxCell>
        <mxCell id="zpII4Fj_1cz_GaKxQMC_-78" style="edgeStyle=orthogonalEdgeStyle;rounded=0;orthogonalLoop=1;jettySize=auto;html=1;exitX=1;exitY=0.5;exitDx=0;exitDy=-5;exitPerimeter=0;entryX=0;entryY=0.27511084583901774;entryDx=0;entryDy=3;entryPerimeter=0;endArrow=none;endFill=0;" edge="1" parent="1" source="zpII4Fj_1cz_GaKxQMC_-32" target="zpII4Fj_1cz_GaKxQMC_-36">
          <mxGeometry relative="1" as="geometry">
            <Array as="points">
              <mxPoint x="350" y="835" />
              <mxPoint x="350" y="679" />
            </Array>
          </mxGeometry>
        </mxCell>
        <mxCell id="zpII4Fj_1cz_GaKxQMC_-79" style="edgeStyle=orthogonalEdgeStyle;rounded=0;orthogonalLoop=1;jettySize=auto;html=1;exitX=1;exitY=0.5;exitDx=0;exitDy=-5;exitPerimeter=0;entryX=0;entryY=0.3362465893587995;entryDx=0;entryDy=3;entryPerimeter=0;endArrow=none;endFill=0;" edge="1" parent="1" source="zpII4Fj_1cz_GaKxQMC_-33" target="zpII4Fj_1cz_GaKxQMC_-36">
          <mxGeometry relative="1" as="geometry">
            <Array as="points">
              <mxPoint x="360" y="925" />
              <mxPoint x="360" y="724" />
            </Array>
          </mxGeometry>
        </mxCell>
        <mxCell id="zpII4Fj_1cz_GaKxQMC_-80" style="edgeStyle=orthogonalEdgeStyle;rounded=0;orthogonalLoop=1;jettySize=auto;html=1;exitX=1;exitY=0.5;exitDx=0;exitDy=-5;exitPerimeter=0;entryX=0;entryY=0.3973823328785812;entryDx=0;entryDy=3;entryPerimeter=0;endArrow=none;endFill=0;" edge="1" parent="1" source="zpII4Fj_1cz_GaKxQMC_-34" target="zpII4Fj_1cz_GaKxQMC_-36">
          <mxGeometry relative="1" as="geometry">
            <Array as="points">
              <mxPoint x="370" y="1015" />
              <mxPoint x="370" y="768" />
            </Array>
          </mxGeometry>
        </mxCell>
        <mxCell id="zpII4Fj_1cz_GaKxQMC_-81" style="edgeStyle=orthogonalEdgeStyle;rounded=0;orthogonalLoop=1;jettySize=auto;html=1;exitX=1;exitY=0.5;exitDx=0;exitDy=-5;exitPerimeter=0;entryX=0;entryY=0.45851807639836295;entryDx=0;entryDy=3;entryPerimeter=0;endArrow=none;endFill=0;" edge="1" parent="1" source="zpII4Fj_1cz_GaKxQMC_-35" target="zpII4Fj_1cz_GaKxQMC_-36">
          <mxGeometry relative="1" as="geometry">
            <Array as="points">
              <mxPoint x="380" y="1105" />
              <mxPoint x="380" y="813" />
            </Array>
          </mxGeometry>
        </mxCell>
        <mxCell id="zpII4Fj_1cz_GaKxQMC_-82" style="edgeStyle=orthogonalEdgeStyle;rounded=0;orthogonalLoop=1;jettySize=auto;html=1;exitX=1;exitY=0.5;exitDx=0;exitDy=-5;exitPerimeter=0;entryX=0;entryY=0.5196538199181446;entryDx=0;entryDy=3;entryPerimeter=0;endArrow=none;endFill=0;" edge="1" parent="1" source="zpII4Fj_1cz_GaKxQMC_-62" target="zpII4Fj_1cz_GaKxQMC_-36">
          <mxGeometry relative="1" as="geometry">
            <Array as="points">
              <mxPoint x="390" y="1195" />
              <mxPoint x="390" y="858" />
            </Array>
          </mxGeometry>
        </mxCell>
        <mxCell id="zpII4Fj_1cz_GaKxQMC_-91" value="" style="ellipse;whiteSpace=wrap;html=1;aspect=fixed;shadow=0;dashed=0;strokeColor=default;strokeWidth=1;align=center;verticalAlign=top;fontFamily=Helvetica;fontSize=12;fontColor=default;fillColor=#000000;" vertex="1" parent="1">
          <mxGeometry x="198" y="1238" width="4" height="4" as="geometry" />
        </mxCell>
        <mxCell id="zpII4Fj_1cz_GaKxQMC_-92" value="" style="ellipse;whiteSpace=wrap;html=1;aspect=fixed;shadow=0;dashed=0;strokeColor=default;strokeWidth=1;align=center;verticalAlign=top;fontFamily=Helvetica;fontSize=12;fontColor=default;fillColor=#000000;" vertex="1" parent="1">
          <mxGeometry x="198" y="1148" width="4" height="4" as="geometry" />
        </mxCell>
        <mxCell id="zpII4Fj_1cz_GaKxQMC_-93" value="" style="ellipse;whiteSpace=wrap;html=1;aspect=fixed;shadow=0;dashed=0;strokeColor=default;strokeWidth=1;align=center;verticalAlign=top;fontFamily=Helvetica;fontSize=12;fontColor=default;fillColor=#000000;" vertex="1" parent="1">
          <mxGeometry x="198" y="1058" width="4" height="4" as="geometry" />
        </mxCell>
        <mxCell id="zpII4Fj_1cz_GaKxQMC_-94" value="" style="ellipse;whiteSpace=wrap;html=1;aspect=fixed;shadow=0;dashed=0;strokeColor=default;strokeWidth=1;align=center;verticalAlign=top;fontFamily=Helvetica;fontSize=12;fontColor=default;fillColor=#000000;" vertex="1" parent="1">
          <mxGeometry x="198" y="968" width="4" height="4" as="geometry" />
        </mxCell>
        <mxCell id="zpII4Fj_1cz_GaKxQMC_-95" value="" style="ellipse;whiteSpace=wrap;html=1;aspect=fixed;shadow=0;dashed=0;strokeColor=default;strokeWidth=1;align=center;verticalAlign=top;fontFamily=Helvetica;fontSize=12;fontColor=default;fillColor=#000000;" vertex="1" parent="1">
          <mxGeometry x="198" y="878" width="4" height="4" as="geometry" />
        </mxCell>
        <mxCell id="zpII4Fj_1cz_GaKxQMC_-96" value="" style="ellipse;whiteSpace=wrap;html=1;aspect=fixed;shadow=0;dashed=0;strokeColor=default;strokeWidth=1;align=center;verticalAlign=top;fontFamily=Helvetica;fontSize=12;fontColor=default;fillColor=#000000;" vertex="1" parent="1">
          <mxGeometry x="198" y="788" width="4" height="4" as="geometry" />
        </mxCell>
        <mxCell id="zpII4Fj_1cz_GaKxQMC_-97" value="" style="ellipse;whiteSpace=wrap;html=1;aspect=fixed;shadow=0;dashed=0;strokeColor=default;strokeWidth=1;align=center;verticalAlign=top;fontFamily=Helvetica;fontSize=12;fontColor=default;fillColor=#000000;" vertex="1" parent="1">
          <mxGeometry x="198" y="698" width="4" height="4" as="geometry" />
        </mxCell>
        <mxCell id="zpII4Fj_1cz_GaKxQMC_-98" value="" style="ellipse;whiteSpace=wrap;html=1;aspect=fixed;shadow=0;dashed=0;strokeColor=default;strokeWidth=1;align=center;verticalAlign=top;fontFamily=Helvetica;fontSize=12;fontColor=default;fillColor=#000000;" vertex="1" parent="1">
          <mxGeometry x="198" y="608" width="4" height="4" as="geometry" />
        </mxCell>
        <mxCell id="zpII4Fj_1cz_GaKxQMC_-99" value="" style="ellipse;whiteSpace=wrap;html=1;aspect=fixed;shadow=0;dashed=0;strokeColor=default;strokeWidth=1;align=center;verticalAlign=top;fontFamily=Helvetica;fontSize=12;fontColor=default;fillColor=#000000;" vertex="1" parent="1">
          <mxGeometry x="388" y="1170" width="4" height="4" as="geometry" />
        </mxCell>
        <mxCell id="zpII4Fj_1cz_GaKxQMC_-100" value="" style="ellipse;whiteSpace=wrap;html=1;aspect=fixed;shadow=0;dashed=0;strokeColor=default;strokeWidth=1;align=center;verticalAlign=top;fontFamily=Helvetica;fontSize=12;fontColor=default;fillColor=#000000;" vertex="1" parent="1">
          <mxGeometry x="388" y="1125" width="4" height="4" as="geometry" />
        </mxCell>
        <mxCell id="zpII4Fj_1cz_GaKxQMC_-101" value="" style="ellipse;whiteSpace=wrap;html=1;aspect=fixed;shadow=0;dashed=0;strokeColor=default;strokeWidth=1;align=center;verticalAlign=top;fontFamily=Helvetica;fontSize=12;fontColor=default;fillColor=#000000;" vertex="1" parent="1">
          <mxGeometry x="388" y="1080" width="4" height="4" as="geometry" />
        </mxCell>
        <mxCell id="zpII4Fj_1cz_GaKxQMC_-102" value="" style="ellipse;whiteSpace=wrap;html=1;aspect=fixed;shadow=0;dashed=0;strokeColor=default;strokeWidth=1;align=center;verticalAlign=top;fontFamily=Helvetica;fontSize=12;fontColor=default;fillColor=#000000;" vertex="1" parent="1">
          <mxGeometry x="388" y="1035" width="4" height="4" as="geometry" />
        </mxCell>
        <mxCell id="zpII4Fj_1cz_GaKxQMC_-103" value="" style="ellipse;whiteSpace=wrap;html=1;aspect=fixed;shadow=0;dashed=0;strokeColor=default;strokeWidth=1;align=center;verticalAlign=top;fontFamily=Helvetica;fontSize=12;fontColor=default;fillColor=#000000;" vertex="1" parent="1">
          <mxGeometry x="388" y="990" width="4" height="4" as="geometry" />
        </mxCell>
        <mxCell id="zpII4Fj_1cz_GaKxQMC_-104" value="" style="ellipse;whiteSpace=wrap;html=1;aspect=fixed;shadow=0;dashed=0;strokeColor=default;strokeWidth=1;align=center;verticalAlign=top;fontFamily=Helvetica;fontSize=12;fontColor=default;fillColor=#000000;" vertex="1" parent="1">
          <mxGeometry x="388" y="946" width="4" height="4" as="geometry" />
        </mxCell>
        <mxCell id="zpII4Fj_1cz_GaKxQMC_-105" value="" style="ellipse;whiteSpace=wrap;html=1;aspect=fixed;shadow=0;dashed=0;strokeColor=default;strokeWidth=1;align=center;verticalAlign=top;fontFamily=Helvetica;fontSize=12;fontColor=default;fillColor=#000000;" vertex="1" parent="1">
          <mxGeometry x="388" y="901" width="4" height="4" as="geometry" />
        </mxCell>
        <mxCell id="zpII4Fj_1cz_GaKxQMC_-106" value="state" style="text;html=1;align=center;verticalAlign=middle;resizable=0;points=[];autosize=1;strokeColor=none;fillColor=none;" vertex="1" parent="1">
          <mxGeometry x="511" y="1212" width="50" height="30" as="geometry" />
        </mxCell>
        <mxCell id="zpII4Fj_1cz_GaKxQMC_-107" value="[0]" style="text;html=1;align=center;verticalAlign=middle;resizable=0;points=[];autosize=1;strokeColor=none;fillColor=none;" vertex="1" parent="1">
          <mxGeometry x="541" y="1199" width="40" height="30" as="geometry" />
        </mxCell>
        <mxCell id="zpII4Fj_1cz_GaKxQMC_-108" value="[1]" style="text;html=1;align=center;verticalAlign=middle;resizable=0;points=[];autosize=1;strokeColor=none;fillColor=none;" vertex="1" parent="1">
          <mxGeometry x="524" y="1199" width="40" height="30" as="geometry" />
        </mxCell>
        <mxCell id="zpII4Fj_1cz_GaKxQMC_-109" value="[2]" style="text;html=1;align=center;verticalAlign=middle;resizable=0;points=[];autosize=1;strokeColor=none;fillColor=none;" vertex="1" parent="1">
          <mxGeometry x="506" y="1199" width="40" height="30" as="geometry" />
        </mxCell>
        <mxCell id="zpII4Fj_1cz_GaKxQMC_-110" value="[3]" style="text;html=1;align=center;verticalAlign=middle;resizable=0;points=[];autosize=1;strokeColor=none;fillColor=none;" vertex="1" parent="1">
          <mxGeometry x="488" y="1199" width="40" height="30" as="geometry" />
        </mxCell>
        <mxCell id="zpII4Fj_1cz_GaKxQMC_-111" value="" style="group" vertex="1" connectable="0" parent="1">
          <mxGeometry x="217" y="439" width="30" height="30" as="geometry" />
        </mxCell>
        <mxCell id="zpII4Fj_1cz_GaKxQMC_-112" value="" style="endArrow=none;html=1;rounded=0;fontFamily=Helvetica;fontSize=12;fontColor=default;" edge="1" parent="zpII4Fj_1cz_GaKxQMC_-111">
          <mxGeometry width="50" height="50" relative="1" as="geometry">
            <mxPoint x="12" y="25.5" as="sourcePoint" />
            <mxPoint x="22" y="15.5" as="targetPoint" />
          </mxGeometry>
        </mxCell>
        <mxCell id="zpII4Fj_1cz_GaKxQMC_-113" value="&lt;font style=&quot;font-size: 7px;&quot;&gt;4&lt;/font&gt;" style="text;html=1;align=center;verticalAlign=middle;resizable=1;points=[];autosize=1;strokeColor=none;fillColor=none;fontFamily=Helvetica;fontSize=12;fontColor=default;movable=1;rotatable=1;deletable=1;editable=1;locked=0;connectable=1;" vertex="1" parent="zpII4Fj_1cz_GaKxQMC_-111">
          <mxGeometry width="30" height="30" as="geometry" />
        </mxCell>
        <mxCell id="zpII4Fj_1cz_GaKxQMC_-114" value="" style="group" vertex="1" connectable="0" parent="1">
          <mxGeometry x="217" y="471" width="30" height="30" as="geometry" />
        </mxCell>
        <mxCell id="zpII4Fj_1cz_GaKxQMC_-115" value="" style="endArrow=none;html=1;rounded=0;fontFamily=Helvetica;fontSize=12;fontColor=default;" edge="1" parent="zpII4Fj_1cz_GaKxQMC_-114">
          <mxGeometry width="50" height="50" relative="1" as="geometry">
            <mxPoint x="12" y="25.5" as="sourcePoint" />
            <mxPoint x="22" y="15.5" as="targetPoint" />
          </mxGeometry>
        </mxCell>
        <mxCell id="zpII4Fj_1cz_GaKxQMC_-116" value="&lt;font style=&quot;font-size: 7px;&quot;&gt;4&lt;/font&gt;" style="text;html=1;align=center;verticalAlign=middle;resizable=1;points=[];autosize=1;strokeColor=none;fillColor=none;fontFamily=Helvetica;fontSize=12;fontColor=default;movable=1;rotatable=1;deletable=1;editable=1;locked=0;connectable=1;" vertex="1" parent="zpII4Fj_1cz_GaKxQMC_-114">
          <mxGeometry width="30" height="30" as="geometry" />
        </mxCell>
        <mxCell id="zpII4Fj_1cz_GaKxQMC_-117" value="" style="group" vertex="1" connectable="0" parent="1">
          <mxGeometry x="217" y="529" width="30" height="30" as="geometry" />
        </mxCell>
        <mxCell id="zpII4Fj_1cz_GaKxQMC_-118" value="" style="endArrow=none;html=1;rounded=0;fontFamily=Helvetica;fontSize=12;fontColor=default;" edge="1" parent="zpII4Fj_1cz_GaKxQMC_-117">
          <mxGeometry width="50" height="50" relative="1" as="geometry">
            <mxPoint x="12" y="25.5" as="sourcePoint" />
            <mxPoint x="22" y="15.5" as="targetPoint" />
          </mxGeometry>
        </mxCell>
        <mxCell id="zpII4Fj_1cz_GaKxQMC_-119" value="&lt;font style=&quot;font-size: 7px;&quot;&gt;4&lt;/font&gt;" style="text;html=1;align=center;verticalAlign=middle;resizable=1;points=[];autosize=1;strokeColor=none;fillColor=none;fontFamily=Helvetica;fontSize=12;fontColor=default;movable=1;rotatable=1;deletable=1;editable=1;locked=0;connectable=1;" vertex="1" parent="zpII4Fj_1cz_GaKxQMC_-117">
          <mxGeometry width="30" height="30" as="geometry" />
        </mxCell>
        <mxCell id="zpII4Fj_1cz_GaKxQMC_-120" value="" style="group" vertex="1" connectable="0" parent="1">
          <mxGeometry x="217" y="561" width="30" height="30" as="geometry" />
        </mxCell>
        <mxCell id="zpII4Fj_1cz_GaKxQMC_-121" value="" style="endArrow=none;html=1;rounded=0;fontFamily=Helvetica;fontSize=12;fontColor=default;" edge="1" parent="zpII4Fj_1cz_GaKxQMC_-120">
          <mxGeometry width="50" height="50" relative="1" as="geometry">
            <mxPoint x="12" y="25.5" as="sourcePoint" />
            <mxPoint x="22" y="15.5" as="targetPoint" />
          </mxGeometry>
        </mxCell>
        <mxCell id="zpII4Fj_1cz_GaKxQMC_-122" value="&lt;font style=&quot;font-size: 7px;&quot;&gt;4&lt;/font&gt;" style="text;html=1;align=center;verticalAlign=middle;resizable=1;points=[];autosize=1;strokeColor=none;fillColor=none;fontFamily=Helvetica;fontSize=12;fontColor=default;movable=1;rotatable=1;deletable=1;editable=1;locked=0;connectable=1;" vertex="1" parent="zpII4Fj_1cz_GaKxQMC_-120">
          <mxGeometry width="30" height="30" as="geometry" />
        </mxCell>
        <mxCell id="zpII4Fj_1cz_GaKxQMC_-123" value="" style="group" vertex="1" connectable="0" parent="1">
          <mxGeometry x="217" y="619" width="30" height="30" as="geometry" />
        </mxCell>
        <mxCell id="zpII4Fj_1cz_GaKxQMC_-124" value="" style="endArrow=none;html=1;rounded=0;fontFamily=Helvetica;fontSize=12;fontColor=default;" edge="1" parent="zpII4Fj_1cz_GaKxQMC_-123">
          <mxGeometry width="50" height="50" relative="1" as="geometry">
            <mxPoint x="12" y="25.5" as="sourcePoint" />
            <mxPoint x="22" y="15.5" as="targetPoint" />
          </mxGeometry>
        </mxCell>
        <mxCell id="zpII4Fj_1cz_GaKxQMC_-125" value="&lt;font style=&quot;font-size: 7px;&quot;&gt;4&lt;/font&gt;" style="text;html=1;align=center;verticalAlign=middle;resizable=1;points=[];autosize=1;strokeColor=none;fillColor=none;fontFamily=Helvetica;fontSize=12;fontColor=default;movable=1;rotatable=1;deletable=1;editable=1;locked=0;connectable=1;" vertex="1" parent="zpII4Fj_1cz_GaKxQMC_-123">
          <mxGeometry width="30" height="30" as="geometry" />
        </mxCell>
        <mxCell id="zpII4Fj_1cz_GaKxQMC_-126" value="" style="group" vertex="1" connectable="0" parent="1">
          <mxGeometry x="217" y="651" width="30" height="30" as="geometry" />
        </mxCell>
        <mxCell id="zpII4Fj_1cz_GaKxQMC_-127" value="" style="endArrow=none;html=1;rounded=0;fontFamily=Helvetica;fontSize=12;fontColor=default;" edge="1" parent="zpII4Fj_1cz_GaKxQMC_-126">
          <mxGeometry width="50" height="50" relative="1" as="geometry">
            <mxPoint x="12" y="25.5" as="sourcePoint" />
            <mxPoint x="22" y="15.5" as="targetPoint" />
          </mxGeometry>
        </mxCell>
        <mxCell id="zpII4Fj_1cz_GaKxQMC_-128" value="&lt;font style=&quot;font-size: 7px;&quot;&gt;4&lt;/font&gt;" style="text;html=1;align=center;verticalAlign=middle;resizable=1;points=[];autosize=1;strokeColor=none;fillColor=none;fontFamily=Helvetica;fontSize=12;fontColor=default;movable=1;rotatable=1;deletable=1;editable=1;locked=0;connectable=1;" vertex="1" parent="zpII4Fj_1cz_GaKxQMC_-126">
          <mxGeometry width="30" height="30" as="geometry" />
        </mxCell>
        <mxCell id="zpII4Fj_1cz_GaKxQMC_-129" value="" style="group" vertex="1" connectable="0" parent="1">
          <mxGeometry x="217" y="709" width="30" height="30" as="geometry" />
        </mxCell>
        <mxCell id="zpII4Fj_1cz_GaKxQMC_-130" value="" style="endArrow=none;html=1;rounded=0;fontFamily=Helvetica;fontSize=12;fontColor=default;" edge="1" parent="zpII4Fj_1cz_GaKxQMC_-129">
          <mxGeometry width="50" height="50" relative="1" as="geometry">
            <mxPoint x="12" y="25.5" as="sourcePoint" />
            <mxPoint x="22" y="15.5" as="targetPoint" />
          </mxGeometry>
        </mxCell>
        <mxCell id="zpII4Fj_1cz_GaKxQMC_-131" value="&lt;font style=&quot;font-size: 7px;&quot;&gt;4&lt;/font&gt;" style="text;html=1;align=center;verticalAlign=middle;resizable=1;points=[];autosize=1;strokeColor=none;fillColor=none;fontFamily=Helvetica;fontSize=12;fontColor=default;movable=1;rotatable=1;deletable=1;editable=1;locked=0;connectable=1;" vertex="1" parent="zpII4Fj_1cz_GaKxQMC_-129">
          <mxGeometry width="30" height="30" as="geometry" />
        </mxCell>
        <mxCell id="zpII4Fj_1cz_GaKxQMC_-132" value="" style="group" vertex="1" connectable="0" parent="1">
          <mxGeometry x="217" y="741" width="30" height="30" as="geometry" />
        </mxCell>
        <mxCell id="zpII4Fj_1cz_GaKxQMC_-133" value="" style="endArrow=none;html=1;rounded=0;fontFamily=Helvetica;fontSize=12;fontColor=default;" edge="1" parent="zpII4Fj_1cz_GaKxQMC_-132">
          <mxGeometry width="50" height="50" relative="1" as="geometry">
            <mxPoint x="12" y="25.5" as="sourcePoint" />
            <mxPoint x="22" y="15.5" as="targetPoint" />
          </mxGeometry>
        </mxCell>
        <mxCell id="zpII4Fj_1cz_GaKxQMC_-134" value="&lt;font style=&quot;font-size: 7px;&quot;&gt;4&lt;/font&gt;" style="text;html=1;align=center;verticalAlign=middle;resizable=1;points=[];autosize=1;strokeColor=none;fillColor=none;fontFamily=Helvetica;fontSize=12;fontColor=default;movable=1;rotatable=1;deletable=1;editable=1;locked=0;connectable=1;" vertex="1" parent="zpII4Fj_1cz_GaKxQMC_-132">
          <mxGeometry width="30" height="30" as="geometry" />
        </mxCell>
        <mxCell id="zpII4Fj_1cz_GaKxQMC_-135" value="" style="group" vertex="1" connectable="0" parent="1">
          <mxGeometry x="217" y="799" width="30" height="30" as="geometry" />
        </mxCell>
        <mxCell id="zpII4Fj_1cz_GaKxQMC_-136" value="" style="endArrow=none;html=1;rounded=0;fontFamily=Helvetica;fontSize=12;fontColor=default;" edge="1" parent="zpII4Fj_1cz_GaKxQMC_-135">
          <mxGeometry width="50" height="50" relative="1" as="geometry">
            <mxPoint x="12" y="25.5" as="sourcePoint" />
            <mxPoint x="22" y="15.5" as="targetPoint" />
          </mxGeometry>
        </mxCell>
        <mxCell id="zpII4Fj_1cz_GaKxQMC_-137" value="&lt;font style=&quot;font-size: 7px;&quot;&gt;4&lt;/font&gt;" style="text;html=1;align=center;verticalAlign=middle;resizable=1;points=[];autosize=1;strokeColor=none;fillColor=none;fontFamily=Helvetica;fontSize=12;fontColor=default;movable=1;rotatable=1;deletable=1;editable=1;locked=0;connectable=1;" vertex="1" parent="zpII4Fj_1cz_GaKxQMC_-135">
          <mxGeometry width="30" height="30" as="geometry" />
        </mxCell>
        <mxCell id="zpII4Fj_1cz_GaKxQMC_-138" value="" style="group" vertex="1" connectable="0" parent="1">
          <mxGeometry x="217" y="831" width="30" height="30" as="geometry" />
        </mxCell>
        <mxCell id="zpII4Fj_1cz_GaKxQMC_-139" value="" style="endArrow=none;html=1;rounded=0;fontFamily=Helvetica;fontSize=12;fontColor=default;" edge="1" parent="zpII4Fj_1cz_GaKxQMC_-138">
          <mxGeometry width="50" height="50" relative="1" as="geometry">
            <mxPoint x="12" y="25.5" as="sourcePoint" />
            <mxPoint x="22" y="15.5" as="targetPoint" />
          </mxGeometry>
        </mxCell>
        <mxCell id="zpII4Fj_1cz_GaKxQMC_-140" value="&lt;font style=&quot;font-size: 7px;&quot;&gt;4&lt;/font&gt;" style="text;html=1;align=center;verticalAlign=middle;resizable=1;points=[];autosize=1;strokeColor=none;fillColor=none;fontFamily=Helvetica;fontSize=12;fontColor=default;movable=1;rotatable=1;deletable=1;editable=1;locked=0;connectable=1;" vertex="1" parent="zpII4Fj_1cz_GaKxQMC_-138">
          <mxGeometry width="30" height="30" as="geometry" />
        </mxCell>
        <mxCell id="zpII4Fj_1cz_GaKxQMC_-141" value="" style="group" vertex="1" connectable="0" parent="1">
          <mxGeometry x="217" y="889" width="30" height="30" as="geometry" />
        </mxCell>
        <mxCell id="zpII4Fj_1cz_GaKxQMC_-142" value="" style="endArrow=none;html=1;rounded=0;fontFamily=Helvetica;fontSize=12;fontColor=default;" edge="1" parent="zpII4Fj_1cz_GaKxQMC_-141">
          <mxGeometry width="50" height="50" relative="1" as="geometry">
            <mxPoint x="12" y="25.5" as="sourcePoint" />
            <mxPoint x="22" y="15.5" as="targetPoint" />
          </mxGeometry>
        </mxCell>
        <mxCell id="zpII4Fj_1cz_GaKxQMC_-143" value="&lt;font style=&quot;font-size: 7px;&quot;&gt;4&lt;/font&gt;" style="text;html=1;align=center;verticalAlign=middle;resizable=1;points=[];autosize=1;strokeColor=none;fillColor=none;fontFamily=Helvetica;fontSize=12;fontColor=default;movable=1;rotatable=1;deletable=1;editable=1;locked=0;connectable=1;" vertex="1" parent="zpII4Fj_1cz_GaKxQMC_-141">
          <mxGeometry width="30" height="30" as="geometry" />
        </mxCell>
        <mxCell id="zpII4Fj_1cz_GaKxQMC_-144" value="" style="group" vertex="1" connectable="0" parent="1">
          <mxGeometry x="217" y="921" width="30" height="30" as="geometry" />
        </mxCell>
        <mxCell id="zpII4Fj_1cz_GaKxQMC_-145" value="" style="endArrow=none;html=1;rounded=0;fontFamily=Helvetica;fontSize=12;fontColor=default;" edge="1" parent="zpII4Fj_1cz_GaKxQMC_-144">
          <mxGeometry width="50" height="50" relative="1" as="geometry">
            <mxPoint x="12" y="25.5" as="sourcePoint" />
            <mxPoint x="22" y="15.5" as="targetPoint" />
          </mxGeometry>
        </mxCell>
        <mxCell id="zpII4Fj_1cz_GaKxQMC_-146" value="&lt;font style=&quot;font-size: 7px;&quot;&gt;4&lt;/font&gt;" style="text;html=1;align=center;verticalAlign=middle;resizable=1;points=[];autosize=1;strokeColor=none;fillColor=none;fontFamily=Helvetica;fontSize=12;fontColor=default;movable=1;rotatable=1;deletable=1;editable=1;locked=0;connectable=1;" vertex="1" parent="zpII4Fj_1cz_GaKxQMC_-144">
          <mxGeometry width="30" height="30" as="geometry" />
        </mxCell>
        <mxCell id="zpII4Fj_1cz_GaKxQMC_-147" value="" style="group" vertex="1" connectable="0" parent="1">
          <mxGeometry x="217" y="979" width="30" height="30" as="geometry" />
        </mxCell>
        <mxCell id="zpII4Fj_1cz_GaKxQMC_-148" value="" style="endArrow=none;html=1;rounded=0;fontFamily=Helvetica;fontSize=12;fontColor=default;" edge="1" parent="zpII4Fj_1cz_GaKxQMC_-147">
          <mxGeometry width="50" height="50" relative="1" as="geometry">
            <mxPoint x="12" y="25.5" as="sourcePoint" />
            <mxPoint x="22" y="15.5" as="targetPoint" />
          </mxGeometry>
        </mxCell>
        <mxCell id="zpII4Fj_1cz_GaKxQMC_-149" value="&lt;font style=&quot;font-size: 7px;&quot;&gt;4&lt;/font&gt;" style="text;html=1;align=center;verticalAlign=middle;resizable=1;points=[];autosize=1;strokeColor=none;fillColor=none;fontFamily=Helvetica;fontSize=12;fontColor=default;movable=1;rotatable=1;deletable=1;editable=1;locked=0;connectable=1;" vertex="1" parent="zpII4Fj_1cz_GaKxQMC_-147">
          <mxGeometry width="30" height="30" as="geometry" />
        </mxCell>
        <mxCell id="zpII4Fj_1cz_GaKxQMC_-150" value="" style="group" vertex="1" connectable="0" parent="1">
          <mxGeometry x="217" y="1011" width="30" height="30" as="geometry" />
        </mxCell>
        <mxCell id="zpII4Fj_1cz_GaKxQMC_-151" value="" style="endArrow=none;html=1;rounded=0;fontFamily=Helvetica;fontSize=12;fontColor=default;" edge="1" parent="zpII4Fj_1cz_GaKxQMC_-150">
          <mxGeometry width="50" height="50" relative="1" as="geometry">
            <mxPoint x="12" y="25.5" as="sourcePoint" />
            <mxPoint x="22" y="15.5" as="targetPoint" />
          </mxGeometry>
        </mxCell>
        <mxCell id="zpII4Fj_1cz_GaKxQMC_-152" value="&lt;font style=&quot;font-size: 7px;&quot;&gt;4&lt;/font&gt;" style="text;html=1;align=center;verticalAlign=middle;resizable=1;points=[];autosize=1;strokeColor=none;fillColor=none;fontFamily=Helvetica;fontSize=12;fontColor=default;movable=1;rotatable=1;deletable=1;editable=1;locked=0;connectable=1;" vertex="1" parent="zpII4Fj_1cz_GaKxQMC_-150">
          <mxGeometry width="30" height="30" as="geometry" />
        </mxCell>
        <mxCell id="zpII4Fj_1cz_GaKxQMC_-153" value="" style="group" vertex="1" connectable="0" parent="1">
          <mxGeometry x="217" y="1069" width="30" height="30" as="geometry" />
        </mxCell>
        <mxCell id="zpII4Fj_1cz_GaKxQMC_-154" value="" style="endArrow=none;html=1;rounded=0;fontFamily=Helvetica;fontSize=12;fontColor=default;" edge="1" parent="zpII4Fj_1cz_GaKxQMC_-153">
          <mxGeometry width="50" height="50" relative="1" as="geometry">
            <mxPoint x="12" y="25.5" as="sourcePoint" />
            <mxPoint x="22" y="15.5" as="targetPoint" />
          </mxGeometry>
        </mxCell>
        <mxCell id="zpII4Fj_1cz_GaKxQMC_-155" value="&lt;font style=&quot;font-size: 7px;&quot;&gt;4&lt;/font&gt;" style="text;html=1;align=center;verticalAlign=middle;resizable=1;points=[];autosize=1;strokeColor=none;fillColor=none;fontFamily=Helvetica;fontSize=12;fontColor=default;movable=1;rotatable=1;deletable=1;editable=1;locked=0;connectable=1;" vertex="1" parent="zpII4Fj_1cz_GaKxQMC_-153">
          <mxGeometry width="30" height="30" as="geometry" />
        </mxCell>
        <mxCell id="zpII4Fj_1cz_GaKxQMC_-156" value="" style="group" vertex="1" connectable="0" parent="1">
          <mxGeometry x="217" y="1101" width="30" height="30" as="geometry" />
        </mxCell>
        <mxCell id="zpII4Fj_1cz_GaKxQMC_-157" value="" style="endArrow=none;html=1;rounded=0;fontFamily=Helvetica;fontSize=12;fontColor=default;" edge="1" parent="zpII4Fj_1cz_GaKxQMC_-156">
          <mxGeometry width="50" height="50" relative="1" as="geometry">
            <mxPoint x="12" y="25.5" as="sourcePoint" />
            <mxPoint x="22" y="15.5" as="targetPoint" />
          </mxGeometry>
        </mxCell>
        <mxCell id="zpII4Fj_1cz_GaKxQMC_-158" value="&lt;font style=&quot;font-size: 7px;&quot;&gt;4&lt;/font&gt;" style="text;html=1;align=center;verticalAlign=middle;resizable=1;points=[];autosize=1;strokeColor=none;fillColor=none;fontFamily=Helvetica;fontSize=12;fontColor=default;movable=1;rotatable=1;deletable=1;editable=1;locked=0;connectable=1;" vertex="1" parent="zpII4Fj_1cz_GaKxQMC_-156">
          <mxGeometry width="30" height="30" as="geometry" />
        </mxCell>
        <mxCell id="zpII4Fj_1cz_GaKxQMC_-159" value="" style="group" vertex="1" connectable="0" parent="1">
          <mxGeometry x="217" y="1159" width="30" height="30" as="geometry" />
        </mxCell>
        <mxCell id="zpII4Fj_1cz_GaKxQMC_-160" value="" style="endArrow=none;html=1;rounded=0;fontFamily=Helvetica;fontSize=12;fontColor=default;" edge="1" parent="zpII4Fj_1cz_GaKxQMC_-159">
          <mxGeometry width="50" height="50" relative="1" as="geometry">
            <mxPoint x="12" y="25.5" as="sourcePoint" />
            <mxPoint x="22" y="15.5" as="targetPoint" />
          </mxGeometry>
        </mxCell>
        <mxCell id="zpII4Fj_1cz_GaKxQMC_-161" value="&lt;font style=&quot;font-size: 7px;&quot;&gt;4&lt;/font&gt;" style="text;html=1;align=center;verticalAlign=middle;resizable=1;points=[];autosize=1;strokeColor=none;fillColor=none;fontFamily=Helvetica;fontSize=12;fontColor=default;movable=1;rotatable=1;deletable=1;editable=1;locked=0;connectable=1;" vertex="1" parent="zpII4Fj_1cz_GaKxQMC_-159">
          <mxGeometry width="30" height="30" as="geometry" />
        </mxCell>
        <mxCell id="zpII4Fj_1cz_GaKxQMC_-162" value="" style="group" vertex="1" connectable="0" parent="1">
          <mxGeometry x="217" y="1191" width="30" height="30" as="geometry" />
        </mxCell>
        <mxCell id="zpII4Fj_1cz_GaKxQMC_-163" value="" style="endArrow=none;html=1;rounded=0;fontFamily=Helvetica;fontSize=12;fontColor=default;" edge="1" parent="zpII4Fj_1cz_GaKxQMC_-162">
          <mxGeometry width="50" height="50" relative="1" as="geometry">
            <mxPoint x="12" y="25.5" as="sourcePoint" />
            <mxPoint x="22" y="15.5" as="targetPoint" />
          </mxGeometry>
        </mxCell>
        <mxCell id="zpII4Fj_1cz_GaKxQMC_-164" value="&lt;font style=&quot;font-size: 7px;&quot;&gt;4&lt;/font&gt;" style="text;html=1;align=center;verticalAlign=middle;resizable=1;points=[];autosize=1;strokeColor=none;fillColor=none;fontFamily=Helvetica;fontSize=12;fontColor=default;movable=1;rotatable=1;deletable=1;editable=1;locked=0;connectable=1;" vertex="1" parent="zpII4Fj_1cz_GaKxQMC_-162">
          <mxGeometry width="30" height="30" as="geometry" />
        </mxCell>
        <mxCell id="zpII4Fj_1cz_GaKxQMC_-165" value="" style="group" vertex="1" connectable="0" parent="1">
          <mxGeometry x="450" y="479" width="30" height="30" as="geometry" />
        </mxCell>
        <mxCell id="zpII4Fj_1cz_GaKxQMC_-166" value="" style="endArrow=none;html=1;rounded=0;fontFamily=Helvetica;fontSize=12;fontColor=default;" edge="1" parent="zpII4Fj_1cz_GaKxQMC_-165">
          <mxGeometry width="50" height="50" relative="1" as="geometry">
            <mxPoint x="12" y="25.5" as="sourcePoint" />
            <mxPoint x="22" y="15.5" as="targetPoint" />
          </mxGeometry>
        </mxCell>
        <mxCell id="zpII4Fj_1cz_GaKxQMC_-167" value="&lt;span style=&quot;font-size: 7px;&quot;&gt;4&lt;/span&gt;" style="text;html=1;align=center;verticalAlign=middle;resizable=1;points=[];autosize=1;strokeColor=none;fillColor=none;fontFamily=Helvetica;fontSize=12;fontColor=default;movable=1;rotatable=1;deletable=1;editable=1;locked=0;connectable=1;" vertex="1" parent="zpII4Fj_1cz_GaKxQMC_-165">
          <mxGeometry width="30" height="30" as="geometry" />
        </mxCell>
        <mxCell id="zpII4Fj_1cz_GaKxQMC_-168" value="" style="group" vertex="1" connectable="0" parent="1">
          <mxGeometry x="449" y="523" width="30" height="30" as="geometry" />
        </mxCell>
        <mxCell id="zpII4Fj_1cz_GaKxQMC_-169" value="" style="endArrow=none;html=1;rounded=0;fontFamily=Helvetica;fontSize=12;fontColor=default;" edge="1" parent="zpII4Fj_1cz_GaKxQMC_-168">
          <mxGeometry width="50" height="50" relative="1" as="geometry">
            <mxPoint x="12" y="25.5" as="sourcePoint" />
            <mxPoint x="22" y="15.5" as="targetPoint" />
          </mxGeometry>
        </mxCell>
        <mxCell id="zpII4Fj_1cz_GaKxQMC_-170" value="&lt;span style=&quot;font-size: 7px;&quot;&gt;4&lt;/span&gt;" style="text;html=1;align=center;verticalAlign=middle;resizable=1;points=[];autosize=1;strokeColor=none;fillColor=none;fontFamily=Helvetica;fontSize=12;fontColor=default;movable=1;rotatable=1;deletable=1;editable=1;locked=0;connectable=1;" vertex="1" parent="zpII4Fj_1cz_GaKxQMC_-168">
          <mxGeometry x="-1" width="30" height="30" as="geometry" />
        </mxCell>
        <mxCell id="zpII4Fj_1cz_GaKxQMC_-171" value="" style="group" vertex="1" connectable="0" parent="1">
          <mxGeometry x="450" y="568" width="30" height="30" as="geometry" />
        </mxCell>
        <mxCell id="zpII4Fj_1cz_GaKxQMC_-172" value="" style="endArrow=none;html=1;rounded=0;fontFamily=Helvetica;fontSize=12;fontColor=default;" edge="1" parent="zpII4Fj_1cz_GaKxQMC_-171">
          <mxGeometry width="50" height="50" relative="1" as="geometry">
            <mxPoint x="12" y="25.5" as="sourcePoint" />
            <mxPoint x="22" y="15.5" as="targetPoint" />
          </mxGeometry>
        </mxCell>
        <mxCell id="zpII4Fj_1cz_GaKxQMC_-173" value="&lt;span style=&quot;font-size: 7px;&quot;&gt;4&lt;/span&gt;" style="text;html=1;align=center;verticalAlign=middle;resizable=1;points=[];autosize=1;strokeColor=none;fillColor=none;fontFamily=Helvetica;fontSize=12;fontColor=default;movable=1;rotatable=1;deletable=1;editable=1;locked=0;connectable=1;" vertex="1" parent="zpII4Fj_1cz_GaKxQMC_-171">
          <mxGeometry width="30" height="30" as="geometry" />
        </mxCell>
        <mxCell id="zpII4Fj_1cz_GaKxQMC_-174" value="" style="group" vertex="1" connectable="0" parent="1">
          <mxGeometry x="449" y="612" width="30" height="30" as="geometry" />
        </mxCell>
        <mxCell id="zpII4Fj_1cz_GaKxQMC_-175" value="" style="endArrow=none;html=1;rounded=0;fontFamily=Helvetica;fontSize=12;fontColor=default;" edge="1" parent="zpII4Fj_1cz_GaKxQMC_-174">
          <mxGeometry width="50" height="50" relative="1" as="geometry">
            <mxPoint x="12" y="25.5" as="sourcePoint" />
            <mxPoint x="22" y="15.5" as="targetPoint" />
          </mxGeometry>
        </mxCell>
        <mxCell id="zpII4Fj_1cz_GaKxQMC_-176" value="&lt;span style=&quot;font-size: 7px;&quot;&gt;4&lt;/span&gt;" style="text;html=1;align=center;verticalAlign=middle;resizable=1;points=[];autosize=1;strokeColor=none;fillColor=none;fontFamily=Helvetica;fontSize=12;fontColor=default;movable=1;rotatable=1;deletable=1;editable=1;locked=0;connectable=1;" vertex="1" parent="zpII4Fj_1cz_GaKxQMC_-174">
          <mxGeometry x="-1" width="30" height="30" as="geometry" />
        </mxCell>
        <mxCell id="zpII4Fj_1cz_GaKxQMC_-177" value="" style="group" vertex="1" connectable="0" parent="1">
          <mxGeometry x="449" y="658" width="30" height="30" as="geometry" />
        </mxCell>
        <mxCell id="zpII4Fj_1cz_GaKxQMC_-178" value="" style="endArrow=none;html=1;rounded=0;fontFamily=Helvetica;fontSize=12;fontColor=default;" edge="1" parent="zpII4Fj_1cz_GaKxQMC_-177">
          <mxGeometry width="50" height="50" relative="1" as="geometry">
            <mxPoint x="12" y="25.5" as="sourcePoint" />
            <mxPoint x="22" y="15.5" as="targetPoint" />
          </mxGeometry>
        </mxCell>
        <mxCell id="zpII4Fj_1cz_GaKxQMC_-179" value="&lt;span style=&quot;font-size: 7px;&quot;&gt;4&lt;/span&gt;" style="text;html=1;align=center;verticalAlign=middle;resizable=1;points=[];autosize=1;strokeColor=none;fillColor=none;fontFamily=Helvetica;fontSize=12;fontColor=default;movable=1;rotatable=1;deletable=1;editable=1;locked=0;connectable=1;" vertex="1" parent="zpII4Fj_1cz_GaKxQMC_-177">
          <mxGeometry width="30" height="30" as="geometry" />
        </mxCell>
        <mxCell id="zpII4Fj_1cz_GaKxQMC_-180" value="" style="group" vertex="1" connectable="0" parent="1">
          <mxGeometry x="448" y="702" width="30" height="30" as="geometry" />
        </mxCell>
        <mxCell id="zpII4Fj_1cz_GaKxQMC_-181" value="" style="endArrow=none;html=1;rounded=0;fontFamily=Helvetica;fontSize=12;fontColor=default;" edge="1" parent="zpII4Fj_1cz_GaKxQMC_-180">
          <mxGeometry width="50" height="50" relative="1" as="geometry">
            <mxPoint x="12" y="25.5" as="sourcePoint" />
            <mxPoint x="22" y="15.5" as="targetPoint" />
          </mxGeometry>
        </mxCell>
        <mxCell id="zpII4Fj_1cz_GaKxQMC_-182" value="&lt;span style=&quot;font-size: 7px;&quot;&gt;4&lt;/span&gt;" style="text;html=1;align=center;verticalAlign=middle;resizable=1;points=[];autosize=1;strokeColor=none;fillColor=none;fontFamily=Helvetica;fontSize=12;fontColor=default;movable=1;rotatable=1;deletable=1;editable=1;locked=0;connectable=1;" vertex="1" parent="zpII4Fj_1cz_GaKxQMC_-180">
          <mxGeometry x="-1" width="30" height="30" as="geometry" />
        </mxCell>
        <mxCell id="zpII4Fj_1cz_GaKxQMC_-183" value="" style="group" vertex="1" connectable="0" parent="1">
          <mxGeometry x="449" y="747" width="30" height="30" as="geometry" />
        </mxCell>
        <mxCell id="zpII4Fj_1cz_GaKxQMC_-184" value="" style="endArrow=none;html=1;rounded=0;fontFamily=Helvetica;fontSize=12;fontColor=default;" edge="1" parent="zpII4Fj_1cz_GaKxQMC_-183">
          <mxGeometry width="50" height="50" relative="1" as="geometry">
            <mxPoint x="12" y="25.5" as="sourcePoint" />
            <mxPoint x="22" y="15.5" as="targetPoint" />
          </mxGeometry>
        </mxCell>
        <mxCell id="zpII4Fj_1cz_GaKxQMC_-185" value="&lt;span style=&quot;font-size: 7px;&quot;&gt;4&lt;/span&gt;" style="text;html=1;align=center;verticalAlign=middle;resizable=1;points=[];autosize=1;strokeColor=none;fillColor=none;fontFamily=Helvetica;fontSize=12;fontColor=default;movable=1;rotatable=1;deletable=1;editable=1;locked=0;connectable=1;" vertex="1" parent="zpII4Fj_1cz_GaKxQMC_-183">
          <mxGeometry width="30" height="30" as="geometry" />
        </mxCell>
        <mxCell id="zpII4Fj_1cz_GaKxQMC_-186" value="" style="group" vertex="1" connectable="0" parent="1">
          <mxGeometry x="448" y="791" width="30" height="30" as="geometry" />
        </mxCell>
        <mxCell id="zpII4Fj_1cz_GaKxQMC_-187" value="" style="endArrow=none;html=1;rounded=0;fontFamily=Helvetica;fontSize=12;fontColor=default;" edge="1" parent="zpII4Fj_1cz_GaKxQMC_-186">
          <mxGeometry width="50" height="50" relative="1" as="geometry">
            <mxPoint x="12" y="25.5" as="sourcePoint" />
            <mxPoint x="22" y="15.5" as="targetPoint" />
          </mxGeometry>
        </mxCell>
        <mxCell id="zpII4Fj_1cz_GaKxQMC_-188" value="&lt;span style=&quot;font-size: 7px;&quot;&gt;4&lt;/span&gt;" style="text;html=1;align=center;verticalAlign=middle;resizable=1;points=[];autosize=1;strokeColor=none;fillColor=none;fontFamily=Helvetica;fontSize=12;fontColor=default;movable=1;rotatable=1;deletable=1;editable=1;locked=0;connectable=1;" vertex="1" parent="zpII4Fj_1cz_GaKxQMC_-186">
          <mxGeometry x="-1" width="30" height="30" as="geometry" />
        </mxCell>
        <mxCell id="zpII4Fj_1cz_GaKxQMC_-189" value="" style="group" vertex="1" connectable="0" parent="1">
          <mxGeometry x="448" y="837" width="30" height="30" as="geometry" />
        </mxCell>
        <mxCell id="zpII4Fj_1cz_GaKxQMC_-190" value="" style="endArrow=none;html=1;rounded=0;fontFamily=Helvetica;fontSize=12;fontColor=default;" edge="1" parent="zpII4Fj_1cz_GaKxQMC_-189">
          <mxGeometry width="50" height="50" relative="1" as="geometry">
            <mxPoint x="12" y="25.5" as="sourcePoint" />
            <mxPoint x="22" y="15.5" as="targetPoint" />
          </mxGeometry>
        </mxCell>
        <mxCell id="zpII4Fj_1cz_GaKxQMC_-191" value="&lt;span style=&quot;font-size: 7px;&quot;&gt;4&lt;/span&gt;" style="text;html=1;align=center;verticalAlign=middle;resizable=1;points=[];autosize=1;strokeColor=none;fillColor=none;fontFamily=Helvetica;fontSize=12;fontColor=default;movable=1;rotatable=1;deletable=1;editable=1;locked=0;connectable=1;" vertex="1" parent="zpII4Fj_1cz_GaKxQMC_-189">
          <mxGeometry width="30" height="30" as="geometry" />
        </mxCell>
        <mxCell id="zpII4Fj_1cz_GaKxQMC_-192" value="" style="group" vertex="1" connectable="0" parent="1">
          <mxGeometry x="447" y="881" width="30" height="30" as="geometry" />
        </mxCell>
        <mxCell id="zpII4Fj_1cz_GaKxQMC_-193" value="" style="endArrow=none;html=1;rounded=0;fontFamily=Helvetica;fontSize=12;fontColor=default;" edge="1" parent="zpII4Fj_1cz_GaKxQMC_-192">
          <mxGeometry width="50" height="50" relative="1" as="geometry">
            <mxPoint x="12" y="25.5" as="sourcePoint" />
            <mxPoint x="22" y="15.5" as="targetPoint" />
          </mxGeometry>
        </mxCell>
        <mxCell id="zpII4Fj_1cz_GaKxQMC_-194" value="&lt;span style=&quot;font-size: 7px;&quot;&gt;4&lt;/span&gt;" style="text;html=1;align=center;verticalAlign=middle;resizable=1;points=[];autosize=1;strokeColor=none;fillColor=none;fontFamily=Helvetica;fontSize=12;fontColor=default;movable=1;rotatable=1;deletable=1;editable=1;locked=0;connectable=1;" vertex="1" parent="zpII4Fj_1cz_GaKxQMC_-192">
          <mxGeometry x="-1" width="30" height="30" as="geometry" />
        </mxCell>
        <mxCell id="zpII4Fj_1cz_GaKxQMC_-195" value="" style="group" vertex="1" connectable="0" parent="1">
          <mxGeometry x="448" y="926" width="30" height="30" as="geometry" />
        </mxCell>
        <mxCell id="zpII4Fj_1cz_GaKxQMC_-196" value="" style="endArrow=none;html=1;rounded=0;fontFamily=Helvetica;fontSize=12;fontColor=default;" edge="1" parent="zpII4Fj_1cz_GaKxQMC_-195">
          <mxGeometry width="50" height="50" relative="1" as="geometry">
            <mxPoint x="12" y="25.5" as="sourcePoint" />
            <mxPoint x="22" y="15.5" as="targetPoint" />
          </mxGeometry>
        </mxCell>
        <mxCell id="zpII4Fj_1cz_GaKxQMC_-197" value="&lt;span style=&quot;font-size: 7px;&quot;&gt;4&lt;/span&gt;" style="text;html=1;align=center;verticalAlign=middle;resizable=1;points=[];autosize=1;strokeColor=none;fillColor=none;fontFamily=Helvetica;fontSize=12;fontColor=default;movable=1;rotatable=1;deletable=1;editable=1;locked=0;connectable=1;" vertex="1" parent="zpII4Fj_1cz_GaKxQMC_-195">
          <mxGeometry width="30" height="30" as="geometry" />
        </mxCell>
        <mxCell id="zpII4Fj_1cz_GaKxQMC_-198" value="" style="group" vertex="1" connectable="0" parent="1">
          <mxGeometry x="447" y="970" width="30" height="30" as="geometry" />
        </mxCell>
        <mxCell id="zpII4Fj_1cz_GaKxQMC_-199" value="" style="endArrow=none;html=1;rounded=0;fontFamily=Helvetica;fontSize=12;fontColor=default;" edge="1" parent="zpII4Fj_1cz_GaKxQMC_-198">
          <mxGeometry width="50" height="50" relative="1" as="geometry">
            <mxPoint x="12" y="25.5" as="sourcePoint" />
            <mxPoint x="22" y="15.5" as="targetPoint" />
          </mxGeometry>
        </mxCell>
        <mxCell id="zpII4Fj_1cz_GaKxQMC_-200" value="&lt;span style=&quot;font-size: 7px;&quot;&gt;4&lt;/span&gt;" style="text;html=1;align=center;verticalAlign=middle;resizable=1;points=[];autosize=1;strokeColor=none;fillColor=none;fontFamily=Helvetica;fontSize=12;fontColor=default;movable=1;rotatable=1;deletable=1;editable=1;locked=0;connectable=1;" vertex="1" parent="zpII4Fj_1cz_GaKxQMC_-198">
          <mxGeometry x="-1" width="30" height="30" as="geometry" />
        </mxCell>
        <mxCell id="zpII4Fj_1cz_GaKxQMC_-201" value="" style="group" vertex="1" connectable="0" parent="1">
          <mxGeometry x="448" y="1017" width="30" height="30" as="geometry" />
        </mxCell>
        <mxCell id="zpII4Fj_1cz_GaKxQMC_-202" value="" style="endArrow=none;html=1;rounded=0;fontFamily=Helvetica;fontSize=12;fontColor=default;" edge="1" parent="zpII4Fj_1cz_GaKxQMC_-201">
          <mxGeometry width="50" height="50" relative="1" as="geometry">
            <mxPoint x="12" y="25.5" as="sourcePoint" />
            <mxPoint x="22" y="15.5" as="targetPoint" />
          </mxGeometry>
        </mxCell>
        <mxCell id="zpII4Fj_1cz_GaKxQMC_-203" value="&lt;span style=&quot;font-size: 7px;&quot;&gt;4&lt;/span&gt;" style="text;html=1;align=center;verticalAlign=middle;resizable=1;points=[];autosize=1;strokeColor=none;fillColor=none;fontFamily=Helvetica;fontSize=12;fontColor=default;movable=1;rotatable=1;deletable=1;editable=1;locked=0;connectable=1;" vertex="1" parent="zpII4Fj_1cz_GaKxQMC_-201">
          <mxGeometry width="30" height="30" as="geometry" />
        </mxCell>
        <mxCell id="zpII4Fj_1cz_GaKxQMC_-204" value="" style="group" vertex="1" connectable="0" parent="1">
          <mxGeometry x="447" y="1061" width="30" height="30" as="geometry" />
        </mxCell>
        <mxCell id="zpII4Fj_1cz_GaKxQMC_-205" value="" style="endArrow=none;html=1;rounded=0;fontFamily=Helvetica;fontSize=12;fontColor=default;" edge="1" parent="zpII4Fj_1cz_GaKxQMC_-204">
          <mxGeometry width="50" height="50" relative="1" as="geometry">
            <mxPoint x="12" y="25.5" as="sourcePoint" />
            <mxPoint x="22" y="15.5" as="targetPoint" />
          </mxGeometry>
        </mxCell>
        <mxCell id="zpII4Fj_1cz_GaKxQMC_-206" value="&lt;span style=&quot;font-size: 7px;&quot;&gt;4&lt;/span&gt;" style="text;html=1;align=center;verticalAlign=middle;resizable=1;points=[];autosize=1;strokeColor=none;fillColor=none;fontFamily=Helvetica;fontSize=12;fontColor=default;movable=1;rotatable=1;deletable=1;editable=1;locked=0;connectable=1;" vertex="1" parent="zpII4Fj_1cz_GaKxQMC_-204">
          <mxGeometry x="-1" width="30" height="30" as="geometry" />
        </mxCell>
        <mxCell id="zpII4Fj_1cz_GaKxQMC_-207" value="" style="group" vertex="1" connectable="0" parent="1">
          <mxGeometry x="448" y="1106" width="30" height="30" as="geometry" />
        </mxCell>
        <mxCell id="zpII4Fj_1cz_GaKxQMC_-208" value="" style="endArrow=none;html=1;rounded=0;fontFamily=Helvetica;fontSize=12;fontColor=default;" edge="1" parent="zpII4Fj_1cz_GaKxQMC_-207">
          <mxGeometry width="50" height="50" relative="1" as="geometry">
            <mxPoint x="12" y="25.5" as="sourcePoint" />
            <mxPoint x="22" y="15.5" as="targetPoint" />
          </mxGeometry>
        </mxCell>
        <mxCell id="zpII4Fj_1cz_GaKxQMC_-209" value="&lt;span style=&quot;font-size: 7px;&quot;&gt;4&lt;/span&gt;" style="text;html=1;align=center;verticalAlign=middle;resizable=1;points=[];autosize=1;strokeColor=none;fillColor=none;fontFamily=Helvetica;fontSize=12;fontColor=default;movable=1;rotatable=1;deletable=1;editable=1;locked=0;connectable=1;" vertex="1" parent="zpII4Fj_1cz_GaKxQMC_-207">
          <mxGeometry width="30" height="30" as="geometry" />
        </mxCell>
        <mxCell id="zpII4Fj_1cz_GaKxQMC_-210" value="" style="group" vertex="1" connectable="0" parent="1">
          <mxGeometry x="447" y="1150" width="30" height="30" as="geometry" />
        </mxCell>
        <mxCell id="zpII4Fj_1cz_GaKxQMC_-211" value="" style="endArrow=none;html=1;rounded=0;fontFamily=Helvetica;fontSize=12;fontColor=default;" edge="1" parent="zpII4Fj_1cz_GaKxQMC_-210">
          <mxGeometry width="50" height="50" relative="1" as="geometry">
            <mxPoint x="12" y="25.5" as="sourcePoint" />
            <mxPoint x="22" y="15.5" as="targetPoint" />
          </mxGeometry>
        </mxCell>
        <mxCell id="zpII4Fj_1cz_GaKxQMC_-212" value="&lt;span style=&quot;font-size: 7px;&quot;&gt;4&lt;/span&gt;" style="text;html=1;align=center;verticalAlign=middle;resizable=1;points=[];autosize=1;strokeColor=none;fillColor=none;fontFamily=Helvetica;fontSize=12;fontColor=default;movable=1;rotatable=1;deletable=1;editable=1;locked=0;connectable=1;" vertex="1" parent="zpII4Fj_1cz_GaKxQMC_-210">
          <mxGeometry x="-1" width="30" height="30" as="geometry" />
        </mxCell>
        <mxCell id="zpII4Fj_1cz_GaKxQMC_-213" value="" style="group" vertex="1" connectable="0" parent="1">
          <mxGeometry x="558" y="815" width="30" height="30" as="geometry" />
        </mxCell>
        <mxCell id="zpII4Fj_1cz_GaKxQMC_-214" value="" style="endArrow=none;html=1;rounded=0;fontFamily=Helvetica;fontSize=12;fontColor=default;" edge="1" parent="zpII4Fj_1cz_GaKxQMC_-213">
          <mxGeometry width="50" height="50" relative="1" as="geometry">
            <mxPoint x="12" y="25.5" as="sourcePoint" />
            <mxPoint x="22" y="15.5" as="targetPoint" />
          </mxGeometry>
        </mxCell>
        <mxCell id="zpII4Fj_1cz_GaKxQMC_-215" value="&lt;span style=&quot;font-size: 7px;&quot;&gt;4&lt;/span&gt;" style="text;html=1;align=center;verticalAlign=middle;resizable=1;points=[];autosize=1;strokeColor=none;fillColor=none;fontFamily=Helvetica;fontSize=12;fontColor=default;movable=1;rotatable=1;deletable=1;editable=1;locked=0;connectable=1;" vertex="1" parent="zpII4Fj_1cz_GaKxQMC_-213">
          <mxGeometry width="30" height="30" as="geometry" />
        </mxCell>
        <mxCell id="zpII4Fj_1cz_GaKxQMC_-216" value="next_state" style="text;html=1;align=center;verticalAlign=middle;resizable=0;points=[];autosize=1;strokeColor=none;fillColor=none;" vertex="1" parent="1">
          <mxGeometry x="570" y="821" width="80" height="30" as="geometry" />
        </mxCell>
        <mxCell id="zpII4Fj_1cz_GaKxQMC_-217" value="&lt;div&gt;8bit&lt;/div&gt;8x1&lt;br&gt;Mux" style="shadow=0;dashed=0;align=center;html=1;strokeWidth=1;shape=mxgraph.electrical.abstract.mux2;whiteSpace=wrap;selectorPins=4;overflow=visible;fillOpacity=100;labelPadding=0;noLabel=0;snapToPoint=0;metaEdit=0;backgroundOutline=0;movableLabel=1;comic=0;enumerate=0;" vertex="1" parent="1">
          <mxGeometry x="494" y="1280" width="90" height="733" as="geometry" />
        </mxCell>
        <mxCell id="zpII4Fj_1cz_GaKxQMC_-218" value="state" style="text;html=1;align=center;verticalAlign=middle;resizable=0;points=[];autosize=1;strokeColor=none;fillColor=none;" vertex="1" parent="1">
          <mxGeometry x="515" y="2018" width="50" height="30" as="geometry" />
        </mxCell>
        <mxCell id="zpII4Fj_1cz_GaKxQMC_-219" value="[0]" style="text;html=1;align=center;verticalAlign=middle;resizable=0;points=[];autosize=1;strokeColor=none;fillColor=none;" vertex="1" parent="1">
          <mxGeometry x="545" y="2005" width="40" height="30" as="geometry" />
        </mxCell>
        <mxCell id="zpII4Fj_1cz_GaKxQMC_-220" value="[1]" style="text;html=1;align=center;verticalAlign=middle;resizable=0;points=[];autosize=1;strokeColor=none;fillColor=none;" vertex="1" parent="1">
          <mxGeometry x="528" y="2005" width="40" height="30" as="geometry" />
        </mxCell>
        <mxCell id="zpII4Fj_1cz_GaKxQMC_-221" value="[2]" style="text;html=1;align=center;verticalAlign=middle;resizable=0;points=[];autosize=1;strokeColor=none;fillColor=none;" vertex="1" parent="1">
          <mxGeometry x="510" y="2005" width="40" height="30" as="geometry" />
        </mxCell>
        <mxCell id="zpII4Fj_1cz_GaKxQMC_-222" value="[3]" style="text;html=1;align=center;verticalAlign=middle;resizable=0;points=[];autosize=1;strokeColor=none;fillColor=none;" vertex="1" parent="1">
          <mxGeometry x="492" y="2005" width="40" height="30" as="geometry" />
        </mxCell>
        <mxCell id="zpII4Fj_1cz_GaKxQMC_-227" value="8bit&lt;div&gt;2x1&lt;br&gt;Mux&lt;/div&gt;" style="shadow=0;dashed=0;align=center;html=1;strokeWidth=1;shape=mxgraph.electrical.abstract.mux2;whiteSpace=wrap;strokeColor=default;verticalAlign=middle;fontFamily=Helvetica;fontSize=12;fontColor=default;fillColor=default;" vertex="1" parent="1">
          <mxGeometry x="377" y="1629" width="70" height="80" as="geometry" />
        </mxCell>
        <mxCell id="zpII4Fj_1cz_GaKxQMC_-228" style="edgeStyle=orthogonalEdgeStyle;rounded=0;orthogonalLoop=1;jettySize=auto;html=1;exitX=0;exitY=0.5196538199181446;exitDx=0;exitDy=3;exitPerimeter=0;entryX=1;entryY=0.5;entryDx=0;entryDy=-5;entryPerimeter=0;endArrow=none;endFill=0;" edge="1" parent="1" source="zpII4Fj_1cz_GaKxQMC_-217" target="zpII4Fj_1cz_GaKxQMC_-227">
          <mxGeometry relative="1" as="geometry" />
        </mxCell>
        <mxCell id="zpII4Fj_1cz_GaKxQMC_-229" value="in" style="text;html=1;align=center;verticalAlign=middle;resizable=0;points=[];autosize=1;strokeColor=none;fillColor=none;" vertex="1" parent="1">
          <mxGeometry x="397" y="1701" width="30" height="30" as="geometry" />
        </mxCell>
        <mxCell id="zpII4Fj_1cz_GaKxQMC_-230" value="1&#39;b0" style="text;html=1;align=center;verticalAlign=middle;resizable=0;points=[];autosize=1;strokeColor=none;fillColor=none;" vertex="1" parent="1">
          <mxGeometry x="337" y="1634" width="50" height="30" as="geometry" />
        </mxCell>
        <mxCell id="zpII4Fj_1cz_GaKxQMC_-231" value="1&#39;b1" style="text;html=1;align=center;verticalAlign=middle;resizable=0;points=[];autosize=1;strokeColor=none;fillColor=none;" vertex="1" parent="1">
          <mxGeometry x="337" y="1665" width="50" height="30" as="geometry" />
        </mxCell>
        <mxCell id="zpII4Fj_1cz_GaKxQMC_-232" value="1&#39;b0" style="text;html=1;align=center;verticalAlign=middle;resizable=0;points=[];autosize=1;strokeColor=none;fillColor=none;" vertex="1" parent="1">
          <mxGeometry x="457" y="1291" width="50" height="30" as="geometry" />
        </mxCell>
        <mxCell id="zpII4Fj_1cz_GaKxQMC_-233" value="1&#39;b0" style="text;html=1;align=center;verticalAlign=middle;resizable=0;points=[];autosize=1;strokeColor=none;fillColor=none;" vertex="1" parent="1">
          <mxGeometry x="457" y="1335" width="50" height="30" as="geometry" />
        </mxCell>
        <mxCell id="zpII4Fj_1cz_GaKxQMC_-234" value="1&#39;b0" style="text;html=1;align=center;verticalAlign=middle;resizable=0;points=[];autosize=1;strokeColor=none;fillColor=none;" vertex="1" parent="1">
          <mxGeometry x="457" y="1380" width="50" height="30" as="geometry" />
        </mxCell>
        <mxCell id="zpII4Fj_1cz_GaKxQMC_-235" value="1&#39;b0" style="text;html=1;align=center;verticalAlign=middle;resizable=0;points=[];autosize=1;strokeColor=none;fillColor=none;" vertex="1" parent="1">
          <mxGeometry x="456" y="1425" width="50" height="30" as="geometry" />
        </mxCell>
        <mxCell id="zpII4Fj_1cz_GaKxQMC_-236" value="1&#39;b0" style="text;html=1;align=center;verticalAlign=middle;resizable=0;points=[];autosize=1;strokeColor=none;fillColor=none;" vertex="1" parent="1">
          <mxGeometry x="457" y="1470" width="50" height="30" as="geometry" />
        </mxCell>
        <mxCell id="zpII4Fj_1cz_GaKxQMC_-237" value="1&#39;b0" style="text;html=1;align=center;verticalAlign=middle;resizable=0;points=[];autosize=1;strokeColor=none;fillColor=none;" vertex="1" parent="1">
          <mxGeometry x="457" y="1515" width="50" height="30" as="geometry" />
        </mxCell>
        <mxCell id="zpII4Fj_1cz_GaKxQMC_-238" value="1&#39;b0" style="text;html=1;align=center;verticalAlign=middle;resizable=0;points=[];autosize=1;strokeColor=none;fillColor=none;" vertex="1" parent="1">
          <mxGeometry x="457" y="1695" width="50" height="30" as="geometry" />
        </mxCell>
        <mxCell id="zpII4Fj_1cz_GaKxQMC_-239" value="1&#39;b0" style="text;html=1;align=center;verticalAlign=middle;resizable=0;points=[];autosize=1;strokeColor=none;fillColor=none;" vertex="1" parent="1">
          <mxGeometry x="457" y="1738" width="50" height="30" as="geometry" />
        </mxCell>
        <mxCell id="zpII4Fj_1cz_GaKxQMC_-240" value="1&#39;b0" style="text;html=1;align=center;verticalAlign=middle;resizable=0;points=[];autosize=1;strokeColor=none;fillColor=none;" vertex="1" parent="1">
          <mxGeometry x="457" y="1783" width="50" height="30" as="geometry" />
        </mxCell>
        <mxCell id="zpII4Fj_1cz_GaKxQMC_-241" value="1&#39;b0" style="text;html=1;align=center;verticalAlign=middle;resizable=0;points=[];autosize=1;strokeColor=none;fillColor=none;" vertex="1" parent="1">
          <mxGeometry x="456" y="1828" width="50" height="30" as="geometry" />
        </mxCell>
        <mxCell id="zpII4Fj_1cz_GaKxQMC_-242" value="1&#39;b0" style="text;html=1;align=center;verticalAlign=middle;resizable=0;points=[];autosize=1;strokeColor=none;fillColor=none;" vertex="1" parent="1">
          <mxGeometry x="457" y="1873" width="50" height="30" as="geometry" />
        </mxCell>
        <mxCell id="zpII4Fj_1cz_GaKxQMC_-243" value="1&#39;b0" style="text;html=1;align=center;verticalAlign=middle;resizable=0;points=[];autosize=1;strokeColor=none;fillColor=none;" vertex="1" parent="1">
          <mxGeometry x="457" y="1918" width="50" height="30" as="geometry" />
        </mxCell>
        <mxCell id="zpII4Fj_1cz_GaKxQMC_-244" value="1&#39;b0" style="text;html=1;align=center;verticalAlign=middle;resizable=0;points=[];autosize=1;strokeColor=none;fillColor=none;" vertex="1" parent="1">
          <mxGeometry x="457" y="1560" width="50" height="30" as="geometry" />
        </mxCell>
        <mxCell id="zpII4Fj_1cz_GaKxQMC_-245" value="1&#39;b0" style="text;html=1;align=center;verticalAlign=middle;resizable=0;points=[];autosize=1;strokeColor=none;fillColor=none;" vertex="1" parent="1">
          <mxGeometry x="457" y="1604" width="50" height="30" as="geometry" />
        </mxCell>
        <mxCell id="zpII4Fj_1cz_GaKxQMC_-246" value="1&#39;b0" style="text;html=1;align=center;verticalAlign=middle;resizable=0;points=[];autosize=1;strokeColor=none;fillColor=none;" vertex="1" parent="1">
          <mxGeometry x="457" y="1963" width="50" height="30" as="geometry" />
        </mxCell>
        <mxCell id="zpII4Fj_1cz_GaKxQMC_-247" value="dec" style="text;html=1;align=center;verticalAlign=middle;resizable=0;points=[];autosize=1;strokeColor=none;fillColor=none;" vertex="1" parent="1">
          <mxGeometry x="575" y="1626" width="40" height="30" as="geometry" />
        </mxCell>
      </root>
    </mxGraphModel>
  </diagram>
</mxfile>
